<svg xmlns="http://www.w3.org/2000/svg" xmlns:xlink="http://www.w3.org/1999/xlink" id="Layer_1" x="0px" y="0px" viewBox="0 0 88 88" style="enable-background:new 0 0 88 88;" xml:space="preserve">
<style type="text/css">
	.st0{fill-rule:evenodd;clip-rule:evenodd;fill:#E3F8FA;}
	.st1{fill:#9BC9FF;}
	.st2{fill:#1E81CE;}
</style>
<title>Icon_ft_3</title>
<desc>Created with Sketch.</desc>
<g id="Page-1">
	<g id="Home-4" transform="translate(-1225.000000, -2755.000000)">
		<g id="Icon_ft_3" transform="translate(1225.000000, 2755.000000)">
			<circle id="Oval" class="st0" cx="44" cy="44" r="44"></circle>
			<g transform="translate(20.000000, 20.000000)">
				<path id="Shape" class="st1" d="M24,47.2c12.8,0,23.2-10.4,23.2-23.2S36.8,0.8,24,0.8S0.8,11.2,0.8,24S11.2,47.2,24,47.2      L24,47.2z M24,4c11,0,20,9,20,20s-9,20-20,20S4,35,4,24S13,4,24,4z"></path>
				<circle class="st1" cx="15.2" cy="15.2" r="3.2"></circle>
				<ellipse class="st1" cx="24" cy="34.4" rx="1.6" ry="3.2"></ellipse>
				<path id="Path" class="st1" d="M23.2,24c0,0.9,0.7,1.6,1.6,1.6h4.8c0.9,0,1.6-0.7,1.6-1.6s-0.7-1.6-1.6-1.6h-4.8      C23.9,22.4,23.2,23.1,23.2,24z"></path>
				<circle class="st1" cx="32.8" cy="31.2" r="1"></circle>
				<circle class="st1" cx="36.8" cy="29.6" r="1"></circle>
				<circle class="st1" cx="10.4" cy="24" r="1"></circle>
				<circle class="st1" cx="38.4" cy="21.6" r="1.6"></circle>
				<g id="Group">
					<path class="st2" d="M24,48C10.7,48,0,37.3,0,24S10.7,0,24,0s24,10.7,24,24C48,37.2,37.2,48,24,48L24,48z M24,1.6       C11.6,1.6,1.6,11.6,1.6,24s10,22.4,22.4,22.4s22.4-10,22.4-22.4C46.4,11.6,36.4,1.6,24,1.6L24,1.6z"></path>
					<path class="st2" d="M24,44.8C12.5,44.8,3.2,35.5,3.2,24S12.5,3.2,24,3.2S44.8,12.5,44.8,24C44.8,35.5,35.5,44.8,24,44.8z        M24,4.8C13.4,4.8,4.8,13.4,4.8,24S13.4,43.2,24,43.2S43.2,34.6,43.2,24C43.2,13.4,34.6,4.8,24,4.8z"></path>
					<path class="st2" d="M15.2,19.2c-2.2,0-4-1.8-4-4s1.8-4,4-4s4,1.8,4,4C19.2,17.4,17.4,19.2,15.2,19.2L15.2,19.2z M15.2,12.8       c-1.3,0-2.4,1.1-2.4,2.4s1.1,2.4,2.4,2.4s2.4-1.1,2.4-2.4S16.5,12.8,15.2,12.8z"></path>
					<path class="st2" d="M24,38.4c-1.4,0-2.4-1.7-2.4-4s1-4,2.4-4s2.4,1.7,2.4,4S25.4,38.4,24,38.4z M24,32c-0.2,0-0.8,0.9-0.8,2.4       c0,1.5,0.6,2.4,0.8,2.4s0.8-0.9,0.8-2.4C24.8,32.9,24.2,32,24,32z"></path>
					<path class="st2" d="M23.2,17.6c-0.4,0-0.7-0.2-0.8-0.6c-0.1-0.3,0-0.7,0.3-0.9l1.3-0.8l-2-1c-0.3-0.1-0.4-0.4-0.4-0.7       s0.2-0.6,0.4-0.7l2-1l-1.3-0.8c-0.2-0.1-0.4-0.4-0.4-0.7s0.1-0.5,0.4-0.7l2.4-1.6C25.5,7.9,26,8,26.3,8.4       c0.2,0.4,0.1,0.9-0.2,1.1l-1.4,0.9l1.4,0.9c0.2,0.2,0.4,0.4,0.4,0.7s-0.2,0.5-0.4,0.7l-1.8,0.9l1.8,0.9       c0.3,0.1,0.4,0.4,0.4,0.7c0,0.3-0.1,0.6-0.4,0.7l-2.4,1.6C23.5,17.6,23.4,17.6,23.2,17.6L23.2,17.6z"></path>
					<path class="st2" d="M29.6,26.4h-4.8c-1.3,0-2.4-1.1-2.4-2.4s1.1-2.4,2.4-2.4h4.8c1.3,0,2.4,1.1,2.4,2.4S30.9,26.4,29.6,26.4z        M24.8,23.2c-0.4,0-0.8,0.4-0.8,0.8s0.4,0.8,0.8,0.8h4.8c0.4,0,0.8-0.4,0.8-0.8s-0.4-0.8-0.8-0.8H24.8z"></path>
					<path class="st2" d="M32.8,32.8c-0.9,0-1.6-0.7-1.6-1.6s0.7-1.6,1.6-1.6s1.6,0.7,1.6,1.6S33.7,32.8,32.8,32.8z"></path>
					<path class="st2" d="M36.8,31.2c-0.9,0-1.6-0.7-1.6-1.6s0.7-1.6,1.6-1.6s1.6,0.7,1.6,1.6S37.7,31.2,36.8,31.2z"></path>
					<path class="st2" d="M10.4,25.6c-0.9,0-1.6-0.7-1.6-1.6s0.7-1.6,1.6-1.6S12,23.1,12,24S11.3,25.6,10.4,25.6z"></path>
					<path class="st2" d="M38.4,24c-1.3,0-2.4-1.1-2.4-2.4s1.1-2.4,2.4-2.4c1.3,0,2.4,1.1,2.4,2.4S39.7,24,38.4,24L38.4,24z        M38.4,20.8c-0.4,0-0.8,0.4-0.8,0.8s0.4,0.8,0.8,0.8c0.4,0,0.8-0.4,0.8-0.8S38.8,20.8,38.4,20.8z"></path>
					<path class="st2" d="M13.6,29.6c-0.4,0-0.7-0.3-0.8-0.6c-0.1-0.4,0.1-0.7,0.4-0.9l1.6-0.8c0.3-0.1,0.6-0.1,0.8,0S16,27.8,16,28       c0,0.3-0.2,0.5-0.4,0.7L14,29.5C13.8,29.6,13.7,29.6,13.6,29.6L13.6,29.6z"></path>
					<path class="st2" d="M30.4,39.2c-0.3,0-0.5-0.1-0.7-0.4c-0.1-0.2-0.2-0.5,0-0.8l0.8-1.6c0.2-0.4,0.7-0.6,1.1-0.4       c0.4,0.2,0.6,0.7,0.4,1.1l-0.8,1.6C31,39,30.7,39.2,30.4,39.2z"></path>
					<path class="st2" d="M30.4,12.8c-0.3,0-0.6-0.2-0.7-0.5c-0.1-0.3-0.1-0.6,0.2-0.9l0.8-0.8c0.3-0.3,0.8-0.3,1.1,0       c0.3,0.3,0.3,0.8,0,1.1L31,12.6C30.8,12.7,30.6,12.8,30.4,12.8L30.4,12.8z"></path>
					<path class="st2" d="M32.8,19.2H32c-0.4,0-0.8-0.4-0.8-0.8s0.4-0.8,0.8-0.8h0.8c0.4,0,0.8,0.4,0.8,0.8S33.2,19.2,32.8,19.2z"></path>
					<path class="st2" d="M33.6,16.8h-0.8c-0.4,0-0.8-0.4-0.8-0.8s0.4-0.8,0.8-0.8h0.8c0.4,0,0.8,0.4,0.8,0.8S34,16.8,33.6,16.8z"></path>
					<path class="st2" d="M35.2,19.2c-0.4,0-0.8-0.4-0.8-0.8v-0.8c0-0.4,0.4-0.8,0.8-0.8c0.4,0,0.8,0.4,0.8,0.8v0.8       C36,18.8,35.6,19.2,35.2,19.2z"></path>
					<path class="st2" d="M12.8,37.6c-0.4,0-0.7-0.3-0.8-0.7s0.2-0.8,0.5-0.9l1.5-0.5l-0.4-0.8c-0.1-0.2-0.1-0.5,0-0.8       s0.4-0.4,0.7-0.4h2.1L16,32.3c-0.1-0.2-0.1-0.4,0-0.6c0.1-0.2,0.3-0.3,0.5-0.4l2.4-0.8c0.4-0.1,0.9,0.1,1,0.5       c0.1,0.4-0.1,0.9-0.5,1l-1.6,0.5l0.5,1.6c0.1,0.2,0,0.5-0.1,0.7s-0.4,0.3-0.6,0.3h-1.9l0.2,0.4c0.1,0.2,0.1,0.5,0,0.7       c-0.1,0.2-0.3,0.4-0.5,0.5l-2.4,0.8C13,37.6,12.9,37.6,12.8,37.6L12.8,37.6z"></path>
					<path class="st2" d="M17.6,24.8c-0.3,0-0.6-0.2-0.7-0.4l-0.8-1.6c-0.2-0.4,0-0.9,0.4-1.1s0.9,0,1.1,0.4l0.8,1.6       c0.1,0.2,0.1,0.5,0,0.8C18.1,24.7,17.9,24.8,17.6,24.8L17.6,24.8z"></path>
				</g>
			</g>
		</g>
	</g>
</g>
</svg>