<svg xmlns="http://www.w3.org/2000/svg" xmlns:xlink="http://www.w3.org/1999/xlink" width="22px" height="23px" viewBox="0 0 22 23"><title>Icon_social_5</title><desc>Created with Sketch.</desc><g id="Page-1" stroke="none" stroke-width="1" fill="none" fill-rule="evenodd" opacity="0.300000012"><g id="Home-4" transform="translate(-1463.000000, -6906.000000)" fill="#333333" fill-rule="nonzero"><g id="Group-9" transform="translate(0.000000, 5686.000000)"><g id="Group-27-Copy" transform="translate(1.000000, 800.000000)"><g id="FOOTER-Copy" transform="translate(0.000000, 133.000000)"><g id="social" transform="translate(1256.000000, 288.000000)"><g id="1-copy-15" transform="translate(155.000000, 4.000000)"><path d="M62.3758087,17.5621185 C64.286972,17.5583038 65.654541,17.5258789 66.4785156,17.4648438 C68.4641927,17.3997396 70.0022786,16.8219401 71.0927734,15.7314453 C72.1832682,14.6409505 72.7773438,13.1028646 72.875,11.1171875 C72.9034831,10.3481445 72.9195048,9.10557048 72.9230652,7.38946533 L72.9230652,5.86053467 C72.9195048,4.14442952 72.9034831,2.90185547 72.875,2.1328125 C72.7773438,0.147135417 72.1832682,-1.39095052 71.0927734,-2.48144531 C70.0022786,-3.5719401 68.4641927,-4.16601562 66.4785156,-4.26367188 C65.5996094,-4.29622396 64.1022135,-4.3125 61.9863281,-4.3125 L61.5968475,-4.3125 C59.6856842,-4.31040192 58.3181152,-4.29418945 57.4941406,-4.26367188 C55.5084635,-4.16601562 53.9785156,-3.56380208 52.9042969,-2.45703125 C51.8300781,-1.3828125 51.2441406,0.130859375 51.1464844,2.08398438 C51.0813802,2.99544271 51.0488281,4.50911458 51.0488281,6.625 C51.0488281,8.74088542 51.0813802,10.2382812 51.1464844,11.1171875 C51.1464844,11.7682292 51.2034505,12.3378906 51.3173828,12.8261719 C51.4313151,13.3144531 51.6184896,13.8190104 51.8789062,14.3398438 C52.1393229,14.8606771 52.4811198,15.3164062 52.9042969,15.7070312 C53.9785156,16.78125 55.5084635,17.3671875 57.4941406,17.4648438 C58.3730469,17.5299479 59.8704427,17.5625 61.9863281,17.5625 L62.3758087,17.5621185 Z M64.5742188,15.609375 L59.3740234,15.609375 C59.0322266,15.609375 58.5764974,15.593099 58.0068359,15.5605469 C57.4371745,15.5279948 56.9488932,15.4791667 56.5419922,15.4140625 C56.1350911,15.3489583 55.8014323,15.2675781 55.5410156,15.1699219 C54.5644531,14.7792969 53.8645833,14.0794271 53.4414062,13.0703125 C53.3763021,12.8424479 53.3111979,12.5494792 53.2460938,12.1914062 C53.1809896,11.8333333 53.1321615,11.4833984 53.0996094,11.1416016 C53.0670573,10.7998047 53.0426432,10.3847656 53.0263672,9.89648438 C53.0100911,9.40820312 53.0019531,9.0094401 53.0019531,8.70019531 L53.0019531,8.70019531 L53.0019531,4.01269531 C53.0019531,3.67089844 53.0182292,3.21516927 53.0507812,2.64550781 C53.0833333,2.07584635 53.1321615,1.5875651 53.1972656,1.18066406 C53.2623698,0.773763021 53.34375,0.440104167 53.4414062,0.1796875 C53.8320312,-0.829427083 54.531901,-1.52929688 55.5410156,-1.91992188 C55.8014323,-2.01757812 56.1350911,-2.09895833 56.5419922,-2.1640625 C56.9488932,-2.22916667 57.4371745,-2.27799479 58.0068359,-2.31054688 C58.5764974,-2.34309896 59.0403646,-2.359375 59.3984375,-2.359375 L59.3984375,-2.359375 L64.5986328,-2.359375 C64.9404297,-2.359375 65.3961589,-2.34309896 65.9658203,-2.31054688 C66.5354818,-2.27799479 67.023763,-2.22916667 67.4306641,-2.1640625 C67.8375651,-2.09895833 68.171224,-2.01757812 68.4316406,-1.91992188 C69.4407552,-1.52929688 70.140625,-0.829427083 70.53125,0.1796875 C70.6289062,0.440104167 70.7102865,0.773763021 70.7753906,1.18066406 C70.8404948,1.5875651 70.8893229,2.07584635 70.921875,2.64550781 C70.9544271,3.21516927 70.9707031,3.67903646 70.9707031,4.03710938 L70.9707031,4.03710938 L70.9707031,9.21289062 C70.9707031,9.57096354 70.9544271,10.0348307 70.921875,10.6044922 C70.8893229,11.1741536 70.8404948,11.6624349 70.7753906,12.0693359 C70.7102865,12.476237 70.6289062,12.8098958 70.53125,13.0703125 C70.140625,14.046875 69.4407552,14.7467448 68.4316406,15.1699219 C68.171224,15.2675781 67.8375651,15.3489583 67.4306641,15.4140625 C67.023763,15.4791667 66.5354818,15.5279948 65.9658203,15.5605469 C65.3961589,15.593099 64.9322917,15.609375 64.5742188,15.609375 L64.5742188,15.609375 Z M67.8457031,2.08398438 C68.203776,2.08398438 68.5048828,1.95377604 68.7490234,1.69335938 C68.9931641,1.43294271 69.1152344,1.12369792 69.1152344,0.765625 C69.1152344,0.407552083 68.985026,0.114583333 68.7246094,-0.11328125 C68.4967448,-0.373697917 68.203776,-0.50390625 67.8457031,-0.50390625 C67.4876302,-0.50390625 67.1783854,-0.381835938 66.9179688,-0.137695312 C66.6575521,0.106445312 66.5273438,0.407552083 66.5273438,0.765625 C66.5273438,1.12369792 66.6575521,1.43294271 66.9179688,1.69335938 C67.1783854,1.95377604 67.4876302,2.08398438 67.8457031,2.08398438 Z M61.9863281,12.2402344 C63.5488281,12.2402344 64.8753255,11.694987 65.9658203,10.6044922 C67.0563151,9.5139974 67.6015625,8.1875 67.6015625,6.625 C67.6015625,5.0625 67.0563151,3.7360026 65.9658203,2.64550781 C64.8753255,1.55501302 63.5488281,1.00976562 61.9863281,1.00976562 C60.4238281,1.00976562 59.0891927,1.56315104 57.9824219,2.66992188 C56.9082031,3.74414062 56.3710938,5.0625 56.3710938,6.625 C56.3710938,8.1875 56.9163411,9.5139974 58.0068359,10.6044922 C59.0973307,11.694987 60.4238281,12.2402344 61.9863281,12.2402344 Z M61.9863281,10.2871094 C60.9772135,10.2871094 60.1145833,9.92903646 59.3984375,9.21289062 C58.6822917,8.49674479 58.3242188,7.63411458 58.3242188,6.625 C58.3242188,5.61588542 58.6822917,4.75325521 59.3984375,4.03710938 C60.1145833,3.32096354 60.9772135,2.96289062 61.9863281,2.96289062 C62.9954427,2.96289062 63.8580729,3.32096354 64.5742188,4.03710938 C65.2903646,4.75325521 65.6484375,5.61588542 65.6484375,6.625 C65.6484375,7.63411458 65.2903646,8.49674479 64.5742188,9.21289062 C63.8580729,9.92903646 62.9954427,10.2871094 61.9863281,10.2871094 Z" id="Icon_social_5"></path></g></g></g></g></g></g></g></svg>