<svg xmlns="http://www.w3.org/2000/svg" xmlns:xlink="http://www.w3.org/1999/xlink" width="88px" height="88px" viewBox="0 0 88 88"><title>Icon_ft_2</title><desc>Created with Sketch.</desc><g id="Page-1" stroke="none" stroke-width="1" fill="none" fill-rule="evenodd"><g id="Home-4" transform="translate(-607.000000, -2531.000000)"><g id="Icon_ft_2" transform="translate(607.000000, 2531.000000)"><circle id="Oval" fill="#E3F8FA" cx="44" cy="44" r="44"></circle><g id="1976911" transform="translate(20.000000, 20.000000)" fill-rule="nonzero"><path d="M38.248,3.612 C36.4520075,1.81990703 34.017157,0.815459271 31.48,0.819984672 C29.016,0.819984672 26.552,2.564 24.672,4.452 L23.992,5.14 L23.296,4.444 C21.424,2.572 18.968,0.828 16.512,0.828 C12.6287136,0.828851319 9.12807213,3.16816869 7.64158965,6.75568649 C6.15510716,10.3432043 6.97533634,14.4728678 9.72,17.22 L24,30.7 L38.288,17.188 C40.0842927,15.3830954 41.0893915,12.9381365 41.0819304,10.3917092 C41.074386,7.84528197 40.0548973,5.40628821 38.248,3.612 Z M28.8,16.3 L25.6,16.3 L25.6,19.5 L22.4,19.5 L22.4,16.3 L19.2,16.3 L19.2,13.1 L22.4,13.1 L22.4,9.9 L25.6,9.9 L25.6,13.1 L28.8,13.1 L28.8,16.3 Z" id="Shape" fill="#9BC9FF"></path><g id="Group" fill="#1E81CE"><path d="M46.1416,18.7936 C45.2633739,18.3956868 44.2533343,18.4107524 43.3873667,18.8346819 C42.5213992,19.2586113 41.8899884,20.0471082 41.6656,20.9848 L39.8504,27.748 C38.7922911,27.0476549 37.4210052,27.0360551 36.3512,27.7184 C36.2112,27.8096 28.9112,32.4688 28.9112,32.4696 C26.3451854,34.0744198 24.7904219,36.8910861 24.799956,39.9176 L24.799956,47.5 L26.4,47.5 L26.4,39.9176 C26.3929233,37.4388577 27.6677,35.1325799 29.7704,33.82 C29.7704,33.82 37.08,29.152 37.2192,29.0616 C37.8540498,28.6563267 38.6850988,28.7457476 39.2192,29.2768 C39.8267536,29.8844698 39.8458261,30.8635293 39.2624,31.4944 L34.5968,34.7744 C34.2351264,35.0276842 34.147045,35.5260961 34.4,35.888 C34.6540831,36.2493645 35.1529718,36.3363924 35.5144,36.0824 L40.2424,32.76 L40.348,32.6704 C41.2317824,31.7963783 41.5202403,30.4850066 41.0848,29.3208 L43.2112,21.4008 C43.4141912,20.5431343 44.2439019,19.986855 45.1144,20.1248 C45.8512241,20.2824693 46.3792806,20.93131 46.384,21.6848 C46.3851478,21.8254711 46.3673889,21.9656587 46.3312,22.1016 L43.4512,32.8664 C43.3421557,33.2730473 43.1280585,33.643855 42.8304,33.9416 L36.84,39.9288 C35.7900169,40.9788903 35.200105,42.4030239 35.2,43.888 L35.2,47.5 L36.8,47.5 L36.8,43.8888 C36.8000144,42.8277435 37.2216065,41.8101669 37.972,41.06 L43.9592,35.072 C44.4557326,34.5753731 44.8127652,33.9567743 44.9944,33.2784 L47.8744,22.5168 C47.9735528,22.1432781 48.0052497,21.7550587 47.968,21.3704 C47.8528731,20.2507381 47.1599271,19.2730862 46.1416,18.7936 Z" id="Path"></path><path d="M19.0912,32.4728 C16.8584,31.0432 11.644,27.7056 11.4432,27.5968 C10.4008717,27.037732 9.13568886,27.0964277 8.1496,27.7496 L6.3336,20.9848 C6.07940186,19.9004912 5.2821722,19.0249545 4.2263529,18.6705707 C3.1705336,18.3161869 2.00651317,18.5334337 1.1496,19.2448 C0.713394514,19.591003 0.383701845,20.0532382 0.1984,20.5784 C-0.0161417406,21.2026403 -0.0422941546,21.8762041 0.1232,22.5152 L3.0032,33.2784 C3.18470591,33.9570606 3.54174672,34.5759498 4.0384,35.0728 L10.0264,41.0608 C10.7769883,41.8103129 11.1991371,42.8272683 11.2,43.888 L11.2,47.5 L12.8,47.5 L12.8,43.8888 C12.799895,42.4034318 12.2096725,40.9789553 11.1592,39.9288 L5.172,33.9416 C4.87434155,33.643855 4.66024425,33.2730473 4.5512,32.8664 L1.6712,22.0992 C1.63557273,21.9637103 1.6180867,21.8240911 1.6192,21.684 C1.62369981,20.9301595 2.15229106,20.2810708 2.8896,20.124 C3.75891038,19.9897981 4.58586272,20.5446946 4.7912,21.4 L6.9184,29.32 C6.48288354,30.4839466 6.77136999,31.7951348 7.6552,32.6688 L12.4888,36.0792 C12.8488023,36.3316766 13.3450887,36.2462825 13.6,35.888 C13.8539924,35.5265718 13.7669645,35.0276831 13.4056,34.7736 L8.74,31.4936 C8.15635625,30.8629419 8.17507555,29.8838871 8.7824,29.276 C9.27984178,28.7796077 10.0424821,28.6648225 10.664,28.9928 C10.916,29.1416 15.3256,31.9608 18.2336,33.8224 C20.3343888,35.1351651 21.6075681,37.4403822 21.6,39.9176 L21.6,47.5 L23.2000415,47.5 L23.2000415,39.9176 C23.2092948,36.8926179 21.6555582,34.0773779 19.0912,32.4728 L19.0912,32.4728 Z" id="Path"></path><path d="M38.8128,3.0456 C36.8689271,1.10088509 34.2296349,0.0118818856 31.48,0.0199549355 C28.5688,0.0199549355 25.8624,2.1232 24.1032,3.8896 L23.988,4.0048 L23.8616,3.8784 C22.1016,2.1184 19.4048,0.028 16.512,0.028 C12.2993101,0.0253128148 8.50110723,2.56424532 6.89295762,6.45790922 C5.28480801,10.3515731 6.18440137,14.8307756 9.1712,17.8016 L24,31.7984 L38.8552,17.752 C40.8012996,15.7969955 41.8903348,13.1485041 41.8824251,10.3900112 C41.8744288,7.63151829 40.7701401,4.98935051 38.8128,3.0456 L38.8128,3.0456 Z M37.7376,16.608 L24,29.6016 L10.2856,16.6544 C7.76966265,14.1360632 7.01784464,10.3504336 8.38053199,7.06181013 C9.74321933,3.77318667 12.9522303,1.62878222 16.512,1.628 C18.8568,1.628 21.188,3.468 22.7304,5.0104 L24,6.2744 L25.2392,5.02 C27.42,2.8296 29.6392,1.6232 31.4792,1.6232 C35.0297333,1.62291299 38.2326261,3.7563319 39.6005625,7.03276853 C40.9684988,10.3092052 40.2334705,14.086735 37.7368,16.6112 L37.7376,16.608 Z" id="Shape"></path><path d="M26.4,20.3 L26.4,17.1 L29.6,17.1 L29.6,12.3 L26.4,12.3 L26.4,9.1 L21.6,9.1 L21.6,12.3 L18.4,12.3 L18.4,17.1 L21.6,17.1 L21.6,20.3 L26.4,20.3 Z M20,15.5 L20,13.9 L23.2,13.9 L23.2,10.7 L24.8,10.7 L24.8,13.9 L28,13.9 L28,15.5 L24.8,15.5 L24.8,18.7 L23.2,18.7 L23.2,15.5 L20,15.5 Z" id="Shape"></path></g></g></g></g></g></svg>