<svg xmlns="http://www.w3.org/2000/svg" xmlns:xlink="http://www.w3.org/1999/xlink" id="Layer_1" x="0px" y="0px" viewBox="0 0 88 88" style="enable-background:new 0 0 88 88;" xml:space="preserve">
<style type="text/css">
	.st0{fill-rule:evenodd;clip-rule:evenodd;fill:#E3F8FA;}
	.st1{fill:#9BC9FF;}
	.st2{fill:#1E81CE;}
</style>
<title>Icon_ft_5</title>
<desc>Created with Sketch.</desc>
<g id="Page-1">
	<g id="Home-4" transform="translate(-1225.000000, -2979.000000)">
		<g id="Icon_ft_5" transform="translate(1225.000000, 2979.000000)">
			<g id="Group-31">
				<circle id="Oval" class="st0" cx="44" cy="44" r="44"></circle>
				<g transform="translate(24.000000, 20.000000)">
					<path id="Shape" class="st1" d="M39.2,24V7.4h-0.4c-6,0-11.9-1.8-16.9-5.1L20,1l-1.9,1.3c-5,3.3-10.8,5.1-16.8,5.1H0.8V24       c0,8.5,4.8,16.2,12.4,20l6.8,3.4l6.8-3.4C34.4,40.2,39.2,32.4,39.2,24z M24.7,39.7L20,42l-4.7-2.3c-6-3-9.8-9.1-9.7-15.7v-12       c5.1-0.6,10-2.4,14.4-5.2c4.4,2.8,9.3,4.5,14.4,5.2v12C34.4,30.6,30.6,36.7,24.7,39.7z"></path>
					<path id="Path" class="st1" d="M28,21h-4c-0.4,0-0.8-0.4-0.8-0.8v-4c0-0.4-0.4-0.8-0.8-0.8h-4.8c-0.4,0-0.8,0.4-0.8,0.8v4       c0,0.4-0.4,0.8-0.8,0.8h-4c-0.4,0-0.8,0.4-0.8,0.8v4.8c0,0.4,0.4,0.8,0.8,0.8h4c0.4,0,0.8,0.4,0.8,0.8v4c0,0.4,0.4,0.8,0.8,0.8       h4.8c0.4,0,0.8-0.4,0.8-0.8v-4c0-0.4,0.4-0.8,0.8-0.8h4c0.4,0,0.8-0.4,0.8-0.8v-4.8C28.8,21.4,28.4,21,28,21z"></path>
					<path class="st2" d="M20,48.3l-7.2-3.6C4.9,40.8,0,32.8,0,24V6.6h1.3c5.8,0,11.5-1.8,16.3-5L20,0l2.4,1.6       c4.9,3.2,10.6,5,16.4,5H40V24c0,8.8-4.9,16.8-12.8,20.7L20,48.3z M1.6,8.2V24c0,8.2,4.6,15.7,11.9,19.3l6.5,3.2l6.5-3.2       c7.3-3.6,12-11.1,11.9-19.3V8.2c-6-0.1-11.9-1.9-16.9-5.2L20,2l-1.5,1C13.5,6.3,7.6,8.1,1.6,8.2z"></path>
					<path class="st2" d="M34.5,11.1c-5-0.6-9.8-2.3-14.1-5.1L20,5.8l-0.4,0.3c-4.3,2.7-9.1,4.4-14.1,5l-0.7,0.1V24       c0,7,3.9,13.4,10.2,16.5l5,2.5l5-2.5c6.2-3.1,10.2-9.5,10.2-16.5V11.2L34.5,11.1z M33.6,24c0,6.4-3.6,12.2-9.3,15L20,41.1       L15.7,39c-5.7-2.8-9.3-8.7-9.3-15V12.6c4.8-0.7,9.5-2.4,13.6-4.9c4.1,2.6,8.8,4.2,13.6,4.9V24z"></path>
					<path class="st2" d="M28,20.2h-4v-4c0-0.9-0.7-1.6-1.6-1.6h-4.8c-0.9,0-1.6,0.7-1.6,1.6v4h-4c-0.9,0-1.6,0.7-1.6,1.6v4.8       c0,0.9,0.7,1.6,1.6,1.6h4v4c0,0.9,0.7,1.6,1.6,1.6h4.8c0.9,0,1.6-0.7,1.6-1.6v-4h4c0.9,0,1.6-0.7,1.6-1.6v-4.8       C29.6,20.9,28.9,20.2,28,20.2z M28,26.6h-4c-0.9,0-1.6,0.7-1.6,1.6v4h-4.8v-4c0-0.9-0.7-1.6-1.6-1.6h-4v-4.8h4       c0.9,0,1.6-0.7,1.6-1.6v-4h4.8v4c0,0.9,0.7,1.6,1.6,1.6h4V26.6z"></path>
				</g>
			</g>
		</g>
	</g>
</g>
</svg>