<svg xmlns="http://www.w3.org/2000/svg" xmlns:xlink="http://www.w3.org/1999/xlink" id="Layer_1" x="0px" y="0px" viewBox="0 0 56 56" style="enable-background:new 0 0 56 56;" xml:space="preserve">
<style type="text/css">
	.st0-icon{fill:#FFE6E2 ;}
	.st1-icon{fill:#FC573B; }
</style>
<title>Icon1</title>
<desc>Created with Sketch.</desc> 
<g id="Page-1">
	<g id="Home-4" transform="translate(-375.000000, -1381.000000)">
		<g id="Icon1" transform="translate(375.000000, 1381.000000)">
			<path id="Path" class="st0-icon" d="M45.5,56h-35C4.7,56,0,51.3,0,45.5v-35C0,4.7,4.7,0,10.5,0h35C51.3,0,56,4.7,56,10.5v35     C56,51.3,51.3,56,45.5,56z"></path>
			<path id="Shape" class="st1-icon" d="M38.8,14H17.2c-1.8,0-3.2,1.4-3.2,3.2V33c0,1.8,1.4,3.2,3.2,3.2h1.5v5c0,0.4,0.2,0.7,0.5,0.8     c0.1,0,0.2,0.1,0.3,0.1c0.2,0,0.5-0.1,0.6-0.3l5.6-5.6h13.1c1.8,0,3.2-1.4,3.2-3.2V17.2C42,15.4,40.6,14,38.8,14L38.8,14z M35,26     c0,1.1-0.9,2-2,2h-2.6v2.6c0,1.1-0.9,2-2,2h-0.6c-1.1,0-2-0.9-2-2V28H23c-1.1,0-2-0.9-2-2v-0.6c0-1.1,0.9-2,2-2h2.6v-2.6     c0-1.1,0.9-2,2-2h0.6c1.1,0,2,0.9,2,2v2.6H33c1.1,0,2,0.9,2,2V26L35,26z"></path>
		</g>
	</g>
</g>
</svg>