<svg xmlns="http://www.w3.org/2000/svg" xmlns:xlink="http://www.w3.org/1999/xlink" id="Layer_1" x="0px" y="0px" viewBox="0 0 56 56" style="enable-background:new 0 0 56 56;" xml:space="preserve">
<style type="text/css">
	.st0-icon2{fill:#F5E6FE;}
	.st1-icon2{fill:#D9A4FC;}
	.st2-icon2{fill:#BE63F9;}
</style>
<title>Icon2</title>
<desc>Created with Sketch.</desc>
<g id="Page-1">
	<g id="Home-4" transform="translate(-643.000000, -1381.000000)">
		<g id="Icon2" transform="translate(643.000000, 1381.000000)">
			<path id="Path" class="st0-icon2" d="M45.5,56h-35C4.7,56,0,51.3,0,45.5v-35C0,4.7,4.7,0,10.5,0h35C51.3,0,56,4.7,56,10.5v35     C56,51.3,51.3,56,45.5,56z"></path>
			<path class="st1-icon2" d="M28.6,32.4c-0.4,0-0.8-0.3-1-0.6l-2-4h-2.2c-0.6,0-1.2-0.5-1.2-1.2c0-0.6,0.5-1.2,1.2-1.2h2.9     c0.4,0,0.8,0.3,1,0.6l1.3,2.6l3.6-7.2c0.2-0.4,0.6-0.6,1-0.6c0.4,0,0.8,0.2,1,0.5l4.3,6.5h2.3c0.6,0,1.2,0.5,1.2,1.2     S41.5,30,40.8,30h-2.9c-0.4,0-0.8-0.2-1-0.5l-3.6-5.3l-3.8,7.5C29.4,32.1,29,32.4,28.6,32.4L28.6,32.4z"></path>
			<path class="st2-icon2" d="M35,30.8l-1.3-2l-2,3.9c-0.6,1.2-1.8,1.9-3.1,1.9s-2.5-0.7-3.1-1.9L24.1,30h-0.8c-1.9,0-3.5-1.6-3.5-3.5     s1.6-3.5,3.5-3.5h2.9c0.8,0,1.5,0.3,2.1,0.7l1.7-3.5c0.6-1.1,1.7-1.9,2.9-1.9c1.2-0.1,2.4,0.5,3.1,1.6l3.2,4.8     c0.2-0.9,0.3-1.8,0.3-2.7c0-3.9-3.2-7.2-7.2-7.2c-2.3,0-4.3,1-5.7,2.7c-1.3-1.7-3.4-2.7-5.7-2.7c-4,0-7.2,3.2-7.2,7.2     c0,10.6,11.9,17,12.4,17.2c0.1,0.1,0.3,0.1,0.4,0.1c0.1,0,0.3,0,0.4-0.1c0.3-0.2,5.3-2.8,8.8-7.5C35.7,31.6,35.3,31.2,35,30.8z"></path>
		</g>
	</g>
</g>
</svg>