<svg xmlns="http://www.w3.org/2000/svg" xmlns:xlink="http://www.w3.org/1999/xlink" width="20px" height="15px" viewBox="0 0 20 15"><title>Icon_header_2</title><desc>Created with Sketch.</desc><g id="Page-1" stroke="none" stroke-width="1" fill="none" fill-rule="evenodd"><g id="Home-4" transform="translate(-643.000000, -208.000000)" fill="#4E97FD" fill-rule="nonzero"><g id="Phone" transform="translate(375.000000, 188.000000)"><path d="M286.125,35 C286.645833,35 287.088542,34.8177083 287.453125,34.453125 C287.817708,34.0885417 288,33.6458333 288,33.125 L288,33.125 L288,21.875 C288,21.3541667 287.817708,20.9114583 287.453125,20.546875 C287.088542,20.1822917 286.645833,20 286.125,20 L286.125,20 L269.875,20 C269.354167,20 268.911458,20.1822917 268.546875,20.546875 C268.182292,20.9114583 268,21.3541667 268,21.875 L268,21.875 L268,33.125 C268,33.6458333 268.182292,34.0885417 268.546875,34.453125 C268.911458,34.8177083 269.354167,35 269.875,35 L269.875,35 L286.125,35 Z M278,30 C277.791667,30 277.53776,29.921875 277.238281,29.765625 C276.938802,29.609375 276.697917,29.4661458 276.515625,29.3359375 C276.333333,29.2057292 276.059896,28.9908854 275.695312,28.6914062 C275.330729,28.3919271 275.148438,28.2421875 275.148438,28.2421875 C272.127604,25.8463542 270.161458,24.2578125 269.25,23.4765625 L269.25,23.4765625 L269.25,21.875 C269.25,21.6927083 269.308594,21.5429688 269.425781,21.4257812 C269.542969,21.3085938 269.692708,21.25 269.875,21.25 L269.875,21.25 L286.125,21.25 C286.307292,21.25 286.457031,21.3085938 286.574219,21.4257812 C286.691406,21.5429688 286.75,21.6927083 286.75,21.875 L286.75,21.875 L286.75,23.4765625 C285.838542,24.2578125 283.872396,25.8463542 280.851562,28.2421875 C280.799479,28.2942708 280.65625,28.4179688 280.421875,28.6132812 C280.1875,28.8085938 279.985677,28.9713542 279.816406,29.1015625 C279.647135,29.2317708 279.451823,29.375 279.230469,29.53125 C279.009115,29.6875 278.794271,29.8046875 278.585938,29.8828125 C278.377604,29.9609375 278.182292,30 278,30 Z M286.125,33.75 L269.875,33.75 C269.692708,33.75 269.542969,33.6914062 269.425781,33.5742188 C269.308594,33.4570312 269.25,33.3072917 269.25,33.125 L269.25,33.125 L269.25,25.1171875 C270.161458,25.8463542 271.867188,27.2135417 274.367188,29.21875 C274.445312,29.2708333 274.588542,29.3880208 274.796875,29.5703125 C275.005208,29.7526042 275.1875,29.9023438 275.34375,30.0195312 C275.5,30.1367188 275.701823,30.2799479 275.949219,30.4492188 C276.196615,30.6184896 276.417969,30.7552083 276.613281,30.859375 C276.808594,30.9635417 277.029948,31.0546875 277.277344,31.1328125 C277.52474,31.2109375 277.765625,31.25 278,31.25 C278.260417,31.25 278.533854,31.2044271 278.820312,31.1132812 C279.106771,31.0221354 279.393229,30.8854167 279.679688,30.703125 C279.966146,30.5208333 280.200521,30.3645833 280.382812,30.234375 C280.565104,30.1041667 280.80599,29.9088542 281.105469,29.6484375 C281.404948,29.3880208 281.580729,29.2447917 281.632812,29.21875 C284.132812,27.2135417 285.838542,25.8463542 286.75,25.1171875 L286.75,25.1171875 L286.75,33.125 C286.75,33.3072917 286.691406,33.4570312 286.574219,33.5742188 C286.457031,33.6914062 286.307292,33.75 286.125,33.75 L286.125,33.75 Z" id="Icon_header_2"></path></g></g></g></svg>