<svg xmlns="http://www.w3.org/2000/svg" xmlns:xlink="http://www.w3.org/1999/xlink" width="23px" height="21px" viewBox="0 0 23 21"><title>Icon_header_1</title><desc>Created with Sketch.</desc><g id="Page-1" stroke="none" stroke-width="1" fill="none" fill-rule="evenodd"><g id="Home-4" transform="translate(-399.000000, -205.000000)" fill="#4E97FD" fill-rule="nonzero"><g id="Phone" transform="translate(375.000000, 188.000000)"><path d="M44,37.5 C44.703125,37.5 45.2955729,37.2591146 45.7773438,36.7773438 C46.2591146,36.2955729 46.5,35.703125 46.5,35 L46.5,35 L46.5,21.25 C46.5,20.546875 46.2591146,19.9544271 45.7773438,19.4726562 C45.2955729,18.9908854 44.703125,18.75 44,18.75 L44,18.75 L33.2578125,18.75 C33.1276042,18.3854167 32.8997396,18.0859375 32.5742188,17.8515625 C32.2486979,17.6171875 31.890625,17.5 31.5,17.5 L31.5,17.5 L29,17.5 C28.7395833,17.5 28.4856771,17.5520833 28.2382812,17.65625 C27.9908854,17.7604167 27.7825521,17.9101562 27.6132812,18.1054688 C27.4440104,18.3007812 27.3203125,18.515625 27.2421875,18.75 L27.2421875,18.75 L26.5,18.75 C25.796875,18.75 25.2044271,18.9908854 24.7226562,19.4726562 C24.2408854,19.9544271 24,20.546875 24,21.25 L24,21.25 L24,35 C24,35.703125 24.2408854,36.2955729 24.7226562,36.7773438 C25.2044271,37.2591146 25.796875,37.5 26.5,37.5 L26.5,37.5 L44,37.5 Z M31.5,33.125 L29,33.125 C28.8177083,33.125 28.6679688,33.0664062 28.5507812,32.9492188 C28.4335938,32.8320312 28.375,32.6822917 28.375,32.5 L28.375,32.5 L28.375,19.375 C28.375,19.1927083 28.4335938,19.0429688 28.5507812,18.9257812 C28.6679688,18.8085938 28.8177083,18.75 29,18.75 L29,18.75 L31.5,18.75 C31.6822917,18.75 31.8320312,18.8085938 31.9492188,18.9257812 C32.0664062,19.0429688 32.125,19.1927083 32.125,19.375 L32.125,19.375 L32.125,32.5 C32.125,32.6822917 32.0664062,32.8320312 31.9492188,32.9492188 C31.8320312,33.0664062 31.6822917,33.125 31.5,33.125 L31.5,33.125 Z M42.75,22.5 L36.5,22.5 L36.5,20 L42.75,20 L42.75,22.5 Z M44,36.25 L26.5,36.25 C26.1614583,36.25 25.8684896,36.1263021 25.6210938,35.8789062 C25.3736979,35.6315104 25.25,35.3385417 25.25,35 L25.25,35 L25.25,21.25 C25.25,20.9114583 25.3736979,20.6184896 25.6210938,20.3710938 C25.8684896,20.1236979 26.1614583,20 26.5,20 L26.5,20 L27.125,20 L27.125,32.5 C27.125,33.0208333 27.3072917,33.4635417 27.671875,33.828125 C28.0364583,34.1927083 28.4791667,34.375 29,34.375 L29,34.375 L31.5,34.375 C32.0208333,34.375 32.4635417,34.1927083 32.828125,33.828125 C33.1927083,33.4635417 33.375,33.0208333 33.375,32.5 L33.375,32.5 L33.375,20 L35.25,20 L35.25,22.5 C35.25,22.8385417 35.3736979,23.1315104 35.6210938,23.3789062 C35.8684896,23.6263021 36.1614583,23.75 36.5,23.75 L36.5,23.75 L42.75,23.75 C43.0885417,23.75 43.3815104,23.6263021 43.6289062,23.3789062 C43.8763021,23.1315104 44,22.8385417 44,22.5 L44,22.5 L44,20 C44.3385417,20 44.6315104,20.1236979 44.8789062,20.3710938 C45.1263021,20.6184896 45.25,20.9114583 45.25,21.25 L45.25,21.25 L45.25,35 C45.25,35.3385417 45.1263021,35.6315104 44.8789062,35.8789062 C44.6315104,36.1263021 44.3385417,36.25 44,36.25 L44,36.25 Z M37.75,28.75 C38.0885417,28.75 38.3815104,28.6263021 38.6289062,28.3789062 C38.8763021,28.1315104 39,27.8385417 39,27.5 L39,27.5 L39,26.25 C39,25.9114583 38.8763021,25.6184896 38.6289062,25.3710938 C38.3815104,25.1236979 38.0885417,25 37.75,25 L37.75,25 L36.5,25 C36.1614583,25 35.8684896,25.1236979 35.6210938,25.3710938 C35.3736979,25.6184896 35.25,25.9114583 35.25,26.25 L35.25,26.25 L35.25,27.5 C35.25,27.8385417 35.3736979,28.1315104 35.6210938,28.3789062 C35.8684896,28.6263021 36.1614583,28.75 36.5,28.75 L36.5,28.75 L37.75,28.75 Z M42.75,28.75 C43.0885417,28.75 43.3815104,28.6263021 43.6289062,28.3789062 C43.8763021,28.1315104 44,27.8385417 44,27.5 L44,27.5 L44,26.25 C44,25.9114583 43.8763021,25.6184896 43.6289062,25.3710938 C43.3815104,25.1236979 43.0885417,25 42.75,25 L42.75,25 L41.5,25 C41.1614583,25 40.8684896,25.1236979 40.6210938,25.3710938 C40.3736979,25.6184896 40.25,25.9114583 40.25,26.25 L40.25,26.25 L40.25,27.5 C40.25,27.8385417 40.3736979,28.1315104 40.6210938,28.3789062 C40.8684896,28.6263021 41.1614583,28.75 41.5,28.75 L41.5,28.75 L42.75,28.75 Z M37.75,27.5 L36.5,27.5 L36.5,26.25 L37.75,26.25 L37.75,27.5 Z M42.75,27.5 L41.5,27.5 L41.5,26.25 L42.75,26.25 L42.75,27.5 Z M37.75,33.75 C38.0885417,33.75 38.3815104,33.6263021 38.6289062,33.3789062 C38.8763021,33.1315104 39,32.8385417 39,32.5 L39,32.5 L39,31.25 C39,30.9114583 38.8763021,30.6184896 38.6289062,30.3710938 C38.3815104,30.1236979 38.0885417,30 37.75,30 L37.75,30 L36.5,30 C36.1614583,30 35.8684896,30.1236979 35.6210938,30.3710938 C35.3736979,30.6184896 35.25,30.9114583 35.25,31.25 L35.25,31.25 L35.25,32.5 C35.25,32.8385417 35.3736979,33.1315104 35.6210938,33.3789062 C35.8684896,33.6263021 36.1614583,33.75 36.5,33.75 L36.5,33.75 L37.75,33.75 Z M42.75,33.75 C43.0885417,33.75 43.3815104,33.6263021 43.6289062,33.3789062 C43.8763021,33.1315104 44,32.8385417 44,32.5 L44,32.5 L44,31.25 C44,30.9114583 43.8763021,30.6184896 43.6289062,30.3710938 C43.3815104,30.1236979 43.0885417,30 42.75,30 L42.75,30 L41.5,30 C41.1614583,30 40.8684896,30.1236979 40.6210938,30.3710938 C40.3736979,30.6184896 40.25,30.9114583 40.25,31.25 L40.25,31.25 L40.25,32.5 C40.25,32.8385417 40.3736979,33.1315104 40.6210938,33.3789062 C40.8684896,33.6263021 41.1614583,33.75 41.5,33.75 L41.5,33.75 L42.75,33.75 Z M37.75,32.5 L36.5,32.5 L36.5,31.25 L37.75,31.25 L37.75,32.5 Z M42.75,32.5 L41.5,32.5 L41.5,31.25 L42.75,31.25 L42.75,32.5 Z" id="Icon_header_1"></path></g></g></g></svg>