<svg xmlns="http://www.w3.org/2000/svg" xmlns:xlink="http://www.w3.org/1999/xlink" id="Layer_1" x="0px" y="0px" viewBox="0 0 88 88" style="enable-background:new 0 0 88 88;" xml:space="preserve">
<style type="text/css">
	.st0{fill-rule:evenodd;clip-rule:evenodd;fill:#E3F8FA;}
	.st1{fill:#9BC9FF;}
	.st2{fill:#1E81CE;}
</style>
<title>Icon_ft_4</title>
<desc>Created with Sketch.</desc>
<g id="Page-1">
	<g id="Home-4" transform="translate(-607.000000, -2755.000000)">
		<g id="Icon_ft_4" transform="translate(607.000000, 2755.000000)">
			<circle id="Oval" class="st0" cx="44" cy="44" r="44"></circle>
			<g transform="translate(20.000000, 20.000000)">
				<path id="Path" class="st1" d="M36.6,20.1c-0.3-0.7-0.5-1.5-0.6-2.3c-0.5-9.1-7.7-16.7-16.9-17c-7.3-0.3-14,4-16.9,10.7      S1,26.1,6.3,31.1c0.6,0.6,1,1.4,1,2.3v13.8h17.6v-4.8c0-0.4,0.4-0.8,0.8-0.8h1.8c1.1,0,2.1-0.5,2.7-1.4l2-2.9      c0.2-0.2,0.2-0.6,0-0.8C32,36.2,31.7,36,31.4,36h-2.9c-0.2,0-0.5-0.1-0.6-0.3l-1.9-2.4c-0.2-0.2-0.2-0.6-0.1-0.8      c0.1-0.3,0.4-0.5,0.7-0.5h7.1v-2.4c0-0.4,0.4-0.8,0.8-0.8h3.4c0.5,0,1-0.3,1.3-0.7c0.3-0.4,0.4-1,0.2-1.5L36.6,20.1z"></path>
				<g id="Group">
					<path id="Shape" class="st2" d="M40.1,26.4l-2.7-6.6c-0.3-0.6-0.4-1.3-0.5-2C36.3,8.1,28.6,0.3,19.2,0       C11.5-0.3,4.5,4.2,1.5,11.2S0.3,26.4,5.8,31.7c0.5,0.4,0.7,1.1,0.7,1.7V48h19.2v-5.6h1.8c1.3,0,2.6-0.7,3.3-1.8l2-2.9       c0.3-0.5,0.4-1.1,0.1-1.6c-0.3-0.5-0.8-0.8-1.4-0.8h-2.9l-1.9-2.4h7.9v-3.2h3.4c0.8,0,1.5-0.4,2-1S40.4,27.1,40.1,26.4       L40.1,26.4z M38.5,27.7c-0.1,0.2-0.4,0.3-0.7,0.3h-3.4c-0.9,0-1.6,0.7-1.6,1.6v1.6h-6.3c-0.6,0-1.2,0.4-1.4,0.9       c-0.3,0.6-0.2,1.2,0.2,1.7l1.9,2.4c0.3,0.4,0.8,0.6,1.2,0.6h2.9l-2,2.9c-0.4,0.7-1.2,1.1-2,1.1h-1.8c-0.9,0-1.6,0.7-1.6,1.6v4       h-16v-13c0-1.1-0.4-2.1-1.2-2.9C3.6,27.4,1.7,23,1.7,18.4c0-4.6,1.8-8.9,5.1-12.1c3.3-3.2,7.7-4.9,12.3-4.7       c8.6,0.3,15.7,7.4,16.2,16.2c0.1,0.9,0.3,1.7,0.6,2.5l2.7,6.5C38.7,27.2,38.7,27.5,38.5,27.7L38.5,27.7z"></path>
					<polygon class="st2" points="37.7,32 39.3,32 39.3,33.6 37.7,33.6      "></polygon>
					<polygon class="st2" points="37.7,35.2 39.3,35.2 39.3,36.8 37.7,36.8      "></polygon>
					<polygon class="st2" points="40.9,33.6 42.5,33.6 42.5,35.2 40.9,35.2      "></polygon>
					<polygon class="st2" points="35.3,33.6 36.9,33.6 36.9,35.2 35.3,35.2      "></polygon>
					<polygon class="st2" points="44.1,33.6 48.1,33.6 48.1,35.2 44.1,35.2      "></polygon>
					<polygon class="st2" points="39.9,31.3 41.2,30.5 42,31.9 40.7,32.7      "></polygon>
					<polygon class="st2" points="42.6,29.7 46.1,27.7 46.9,29.1 43.4,31.1      "></polygon>
					<polygon class="st2" points="39.9,37.5 40.7,36.1 42,36.9 41.2,38.3      "></polygon>
					<polygon class="st2" points="42.6,39.1 43.4,37.7 46.9,39.7 46.1,41.1      "></polygon>
				</g>
			</g>
		</g>
	</g>
</g>
</svg>