<svg xmlns="http://www.w3.org/2000/svg" xmlns:xlink="http://www.w3.org/1999/xlink" width="22px" height="22px" viewBox="0 0 22 22"><title>Icon_social_4</title><desc>Created with Sketch.</desc><g id="Page-1" stroke="none" stroke-width="1" fill="none" fill-rule="evenodd" opacity="0.300000012"><g id="Home-4" transform="translate(-1412.000000, -6905.000000)" fill="#333333" fill-rule="nonzero"><g id="Group-9" transform="translate(0.000000, 5686.000000)"><g id="Group-27-Copy" transform="translate(1.000000, 800.000000)"><g id="FOOTER-Copy" transform="translate(0.000000, 133.000000)"><g id="social" transform="translate(1256.000000, 288.000000)"><g id="1-copy-15" transform="translate(155.000000, 4.000000)"><path d="M2.63671875,-0.6015625 C3.09244792,-0.6015625 3.52376302,-0.723632812 3.93066406,-0.967773438 C4.3375651,-1.21191406 4.66308594,-1.5374349 4.90722656,-1.94433594 C5.15136719,-2.35123698 5.2734375,-2.7906901 5.2734375,-3.26269531 C5.2734375,-3.73470052 5.15136719,-4.17415365 4.90722656,-4.58105469 C4.66308594,-4.98795573 4.3375651,-5.30533854 3.93066406,-5.53320312 C3.52376302,-5.76106771 3.09244792,-5.875 2.63671875,-5.875 C1.92057292,-5.875 1.30208333,-5.61458333 0.78125,-5.09375 C0.260416667,-4.57291667 0,-3.95442708 0,-3.23828125 C0,-2.52213542 0.260416667,-1.90364583 0.78125,-1.3828125 C1.30208333,-0.861979167 1.92057292,-0.6015625 2.63671875,-0.6015625 Z M12.2558594,16 L12.2558594,8.7734375 C12.2558594,7.63411458 12.4430339,6.72265625 12.8173828,6.0390625 C13.1917318,5.35546875 13.9160156,5.01367188 14.9902344,5.01367188 C15.5436198,5.01367188 15.9912109,5.12760417 16.3330078,5.35546875 C16.6748047,5.58333333 16.9108073,5.91699219 17.0410156,6.35644531 C17.171224,6.79589844 17.2526042,7.18652344 17.2851562,7.52832031 C17.3177083,7.87011719 17.3339844,8.31770833 17.3339844,8.87109375 L17.3339844,8.87109375 L17.3339844,16 L21.875,16 L21.875,7.9921875 C21.875,6.91796875 21.8017578,5.99023438 21.6552734,5.20898438 C21.5087891,4.42773438 21.2483724,3.70345052 20.8740234,3.03613281 C20.4996745,2.3688151 19.9462891,1.86425781 19.2138672,1.52246094 C18.4814453,1.18066406 17.561849,1.00976562 16.4550781,1.00976562 C15.4134115,1.00976562 14.5182292,1.24576823 13.7695312,1.71777344 C13.0208333,2.18977865 12.483724,2.75130208 12.1582031,3.40234375 L12.1582031,3.40234375 L12.109375,3.40234375 L12.109375,1.40039062 L7.71484375,1.40039062 L7.71484375,16 L12.2558594,16 Z M4.8828125,16 L4.8828125,1.40039062 L0.341796875,1.40039062 L0.341796875,16 L4.8828125,16 Z" id="Icon_social_4"></path></g></g></g></g></g></g></g></svg>