<svg xmlns="http://www.w3.org/2000/svg" xmlns:xlink="http://www.w3.org/1999/xlink" width="88px" height="88px" viewBox="0 0 88 88"><title>Icon_ft_6</title><desc>Created with Sketch.</desc><g id="Page-1" stroke="none" stroke-width="1" fill="none" fill-rule="evenodd"><g id="Home-4" transform="translate(-607.000000, -2979.000000)"><g id="Icon_ft_6" transform="translate(607.000000, 2979.000000)"><circle id="Oval" fill="#E3F8FA" cx="44" cy="44" r="44"></circle><g id="1976959" transform="translate(20.000000, 20.000000)" fill-rule="nonzero"><path d="M24,47.2 C36.8130062,47.2 47.2,36.8130062 47.2,24 C47.2,11.1869938 36.8130062,0.8 24,0.8 C11.1869938,0.8 0.8,11.1869938 0.8,24 C0.8,36.8130062 11.1869938,47.2 24,47.2 L24,47.2 Z M9.6,20.8 C9.60263584,19.9174385 10.3174385,19.2026358 11.2,19.2 L17.6,19.2 C18.4836556,19.2 19.2,18.4836556 19.2,17.6 L19.2,11.2 C19.2026358,10.3174385 19.9174385,9.60263584 20.8,9.6 L27.2,9.6 C28.0825615,9.60263584 28.7973642,10.3174385 28.8,11.2 L28.8,17.6 C28.8,18.4836556 29.5163444,19.2 30.4,19.2 L36.8,19.2 C37.6825615,19.2026358 38.3973642,19.9174385 38.4,20.8 L38.4,27.2 C38.3973642,28.0825615 37.6825615,28.7973642 36.8,28.8 L30.4,28.8 C29.5163444,28.8 28.8,29.5163444 28.8,30.4 L28.8,36.8 C28.7973642,37.6825615 28.0825615,38.3973642 27.2,38.4 L20.8,38.4 C19.9174385,38.3973642 19.2026358,37.6825615 19.2,36.8 L19.2,30.4 C19.2,29.5163444 18.4836556,28.8 17.6,28.8 L11.2,28.8 C10.3174385,28.7973642 9.60263584,28.0825615 9.6,27.2 L9.6,20.8 Z" id="Shape" fill="#9BC9FF"></path><g id="Group" fill="#1E81CE"><path d="M24,48 C10.745166,48 -5.68434189e-15,37.254834 -5.68434189e-15,24 C-5.68434189e-15,10.745166 10.745166,-5.68434189e-15 24,-5.68434189e-15 C37.254834,-5.68434189e-15 48,10.745166 48,24 C47.9850104,37.2486201 37.2486201,47.9850104 24,48 L24,48 Z M24,1.6 C11.6288216,1.6 1.6,11.6288216 1.6,24 C1.6,36.3711784 11.6288216,46.4 24,46.4 C36.3711784,46.4 46.4,36.3711784 46.4,24 C46.3858924,11.6346699 36.3653301,1.61410764 24,1.6 L24,1.6 Z" id="Shape"></path><path d="M36.8,18.4 L30.4,18.4 C29.9581722,18.4 29.6,18.0418278 29.6,17.6 L29.6,11.2 C29.6,9.8745166 28.5254834,8.8 27.2,8.8 L20.8,8.8 C19.4745166,8.8 18.4,9.8745166 18.4,11.2 L18.4,17.6 C18.4,18.0418278 18.0418278,18.4 17.6,18.4 L11.2,18.4 C9.8745166,18.4 8.8,19.4745166 8.8,20.8 L8.8,27.2 C8.8,28.5254834 9.8745166,29.6 11.2,29.6 L17.6,29.6 C18.0418278,29.6 18.4,29.9581722 18.4,30.4 L18.4,36.8 C18.4,38.1254834 19.4745166,39.2 20.8,39.2 L27.2,39.2 C28.5254834,39.2 29.6,38.1254834 29.6,36.8 L29.6,30.4 C29.6,29.9581722 29.9581722,29.6 30.4,29.6 L36.8,29.6 C38.1254834,29.6 39.2,28.5254834 39.2,27.2 L39.2,20.8 C39.2,19.4745166 38.1254834,18.4 36.8,18.4 Z M37.6,27.2 C37.6,27.6418278 37.2418278,28 36.8,28 L30.4,28 C29.0745166,28 28,29.0745166 28,30.4 L28,36.8 C28,37.2418278 27.6418278,37.6 27.2,37.6 L20.8,37.6 C20.3581722,37.6 20,37.2418278 20,36.8 L20,30.4 C20,29.0745166 18.9254834,28 17.6,28 L11.2,28 C10.7581722,28 10.4,27.6418278 10.4,27.2 L10.4,20.8 C10.4,20.3581722 10.7581722,20 11.2,20 L17.6,20 C18.9254834,20 20,18.9254834 20,17.6 L20,11.2 C20,10.7581722 20.3581722,10.4 20.8,10.4 L27.2,10.4 C27.6418278,10.4 28,10.7581722 28,11.2 L28,17.6 C28,18.9254834 29.0745166,20 30.4,20 L36.8,20 C37.2418278,20 37.6,20.3581722 37.6,20.8 L37.6,27.2 Z" id="Shape"></path></g></g></g></g></g></svg>