<svg xmlns="http://www.w3.org/2000/svg" xmlns:xlink="http://www.w3.org/1999/xlink" width="56px" height="56px" viewBox="0 0 56 56"><title>Icon2</title><desc>Created with Sketch.</desc><g id="Page-1" stroke="none" stroke-width="1" fill="none" fill-rule="evenodd"><g id="Home-4" transform="translate(-643.000000, -1381.000000)" fill-rule="nonzero"><g id="Icon2" transform="translate(643.000000, 1381.000000)"><path d="M45.5,56 L10.5,56 C4.7005,56 0,51.2995 0,45.5 L0,10.5 C0,4.7005 4.7005,0 10.5,0 L45.5,0 C51.2995,0 56,4.7005 56,10.5 L56,45.5 C56,51.2995 51.2995,56 45.5,56 Z" id="Path" fill="#F5E6FE"></path><path d="M28.58275,32.375 C28.14,32.375 27.7375,32.12475 27.53975,31.731 L25.529,27.7095 L23.33275,27.7095 C22.68875,27.7095 22.1655,27.18625 22.1655,26.54225 C22.1655,25.89825 22.68875,25.375 23.33275,25.375 L26.25,25.375 C26.69275,25.375 27.09525,25.62525 27.293,26.019 L28.58275,28.5985 L32.20525,21.35175 C32.39075,20.979 32.76175,20.734 33.1765,20.7095 C33.59125,20.6815 33.99025,20.881 34.2195,21.2275 L38.54025,27.70775 L40.83275,27.70775 C41.47675,27.70775 42,28.231 42,28.875 C42,29.519 41.47675,30.04225 40.83275,30.04225 L37.9155,30.04225 C37.52525,30.04225 37.16125,29.848 36.94425,29.5225 L33.3935,24.1955 L29.62575,31.731 C29.42975,32.12475 29.0255,32.375 28.58275,32.375 L28.58275,32.375 Z" id="Path" fill="#D9A4FC"></path><path d="M35.00525,30.81575 L33.684,28.83475 L31.71525,32.774 C31.1185,33.9675 29.918,34.70775 28.5845,34.70775 C27.251,34.70775 26.0505,33.96575 25.45375,32.774 L24.08875,30.04225 L23.3345,30.04225 C21.40425,30.04225 19.8345,28.4725 19.8345,26.54225 C19.8345,24.612 21.40425,23.04225 23.3345,23.04225 L26.25,23.04225 C27.0445,23.04225 27.79,23.30475 28.39025,23.7685 L30.11925,20.3105 C30.6775,19.1975 31.794,18.459 33.03475,18.382 C34.2615,18.2945 35.4725,18.89475 36.16375,19.936 L39.39425,24.78175 C39.5675,23.9015 39.66725,22.988 39.66725,22.0395 C39.66725,18.08975 36.449,14.87675 32.49225,14.87675 C30.21375,14.87675 28.15575,15.8655 26.8345,17.528 C25.5115,15.86375 23.4535,14.875 21.175,14.875 C17.21825,14.875 14,18.088 14,22.03775 C14,32.65325 25.921,39.00925 26.4285,39.27525 C26.55625,39.34175 26.6945,39.375 26.8345,39.375 C26.9745,39.375 27.11275,39.34175 27.2405,39.27525 C27.56425,39.1055 32.51675,36.463 36.071,31.82375 C35.65625,31.56475 35.2835,31.23575 35.00525,30.81575 Z" id="Path" fill="#BE63F9"></path></g></g></g></svg>