<svg xmlns="http://www.w3.org/2000/svg" xmlns:xlink="http://www.w3.org/1999/xlink" width="25px" height="21px" viewBox="0 0 25 21"><title>Icon_social_1</title><desc>Created with Sketch.</desc><g id="Page-1" stroke="none" stroke-width="1" fill="none" fill-rule="evenodd"><g id="Home-4" transform="translate(-1257.000000, -6907.000000)" fill="#333333" fill-rule="nonzero"><g id="Group-9" transform="translate(0.000000, 5686.000000)"><g id="Group-27-Copy" transform="translate(1.000000, 800.000000)"><g id="FOOTER-Copy" transform="translate(0.000000, 133.000000)"><g id="social" transform="translate(1256.000000, 288.000000)"><g id="1"><path d="M7.86132812,20.78125 C10.139974,20.78125 12.2233073,20.3417969 14.1113281,19.4628906 C15.999349,18.5839844 17.5374349,17.4365234 18.7255859,16.0205078 C19.913737,14.6044922 20.8333333,13.0419922 21.484375,11.3330078 C22.1354167,9.62402344 22.4609375,7.90690104 22.4609375,6.18164062 C22.4609375,5.88867188 22.4446615,5.67708333 22.4121094,5.546875 C23.421224,4.79817708 24.2838542,3.90299479 25,2.86132812 C24.0234375,3.28450521 23.046875,3.56119792 22.0703125,3.69140625 C23.1770833,3.0078125 23.9257812,2.06380208 24.3164062,0.859375 C23.3072917,1.4453125 22.2167969,1.85221354 21.0449219,2.08007812 C20.0358073,1.00585938 18.7825521,0.46875 17.2851562,0.46875 C15.8854167,0.46875 14.6891276,0.973307292 13.6962891,1.98242188 C12.7034505,2.99153646 12.2070312,4.19596354 12.2070312,5.59570312 C12.2070312,5.98632812 12.2395833,6.37695312 12.3046875,6.76757812 C10.2213542,6.66992188 8.26009115,6.14908854 6.42089844,5.20507812 C4.58170573,4.26106771 3.02734375,2.99153646 1.7578125,1.39648438 C1.26953125,2.21028646 1.02539062,3.07291667 1.02539062,3.984375 C1.02539062,5.80729167 1.79036458,7.23958333 3.3203125,8.28125 C2.50651042,8.24869792 1.74153646,8.02083333 1.02539062,7.59765625 L1.02539062,7.59765625 L1.02539062,7.6953125 C1.02539062,8.50911458 1.20442708,9.26595052 1.5625,9.96582031 C1.92057292,10.6656901 2.40885417,11.2597656 3.02734375,11.7480469 C3.64583333,12.2363281 4.34570312,12.561849 5.12695312,12.7246094 C4.67122396,12.8222656 4.21549479,12.8710938 3.75976562,12.8710938 C3.46679688,12.8710938 3.15755208,12.8548177 2.83203125,12.8222656 C3.15755208,13.8313802 3.7516276,14.6695964 4.61425781,15.3369141 C5.47688802,16.0042318 6.47786458,16.3378906 7.6171875,16.3378906 C5.72916667,17.8027344 3.59700521,18.5351562 1.22070312,18.5351562 C0.764973958,18.5351562 0.358072917,18.5188802 0,18.4863281 C2.37630208,20.016276 4.99674479,20.78125 7.86132812,20.78125 Z" id="Icon_social_1"></path></g></g></g></g></g></g></g></svg>