<svg xmlns="http://www.w3.org/2000/svg" xmlns:xlink="http://www.w3.org/1999/xlink" id="Layer_1" x="0px" y="0px" viewBox="0 0 88 88" style="enable-background:new 0 0 88 88;" xml:space="preserve">
<style type="text/css">
	.st0{fill-rule:evenodd;clip-rule:evenodd;fill:#E3F8FA;}
	.st1{fill:#9BC9FF;}
	.st2{fill:#1E81CE;}
</style>
<title>Icon_ft_1</title>
<desc>Created with Sketch.</desc>
<g id="Page-1">
	<g id="Home-4" transform="translate(-1225.000000, -2531.000000)">
		<g id="Icon_ft_1" transform="translate(1225.000000, 2531.000000)">
			<circle id="Oval" class="st0" cx="44" cy="44" r="44"></circle>
			<g transform="translate(20.000000, 20.000000)">
				<path id="Path" class="st1" d="M42.6,3c-1.3-1.4-3.2-2.1-5.1-2.1S33.8,1.7,32.4,3l-2.8,2.8L26.8,3C24,0.3,19.5,0.3,16.7,3.1      s-2.8,7.2-0.1,10.1l1,1l1.8,1.8l10.2,10.2L39.8,16l2.6-2.6l0.2-0.2c1.4-1.3,2.1-3.2,2.1-5.1S44,4.4,42.6,3z"></path>
				<rect id="Rectangle" y="27.8" class="st1" width="8" height="19.2"></rect>
				<path id="Shape" class="st2" d="M45.1,30.2c-1.1-1.9-3.5-2.6-5.4-1.5l-9.4,4.8c-0.5-0.6-1.2-1-2-1.2l-9.9-2.6      c-0.8-0.2-1.6-0.2-2.3,0.1l-3.4,1.1C12.4,31,12.1,31,11.9,31H8.8v-4H0v1.6h7.2v17.6H0v1.6h8.8v-3.2h1.6c0.2,0,0.4,0,0.6,0.1      l5.6,1.4c0.3,0.1,0.6,0.1,1,0.1h6.7c0.7,0,1.4-0.2,2-0.5l17.3-10c1.2-0.7,2-2,2-3.5C45.6,31.5,45.4,30.8,45.1,30.2L45.1,30.2z       M42.8,34.3l-17.3,10c-0.4,0.2-0.8,0.3-1.2,0.3h-6.7c-0.2,0-0.4,0-0.6-0.1l-5.6-1.4C11,43,10.7,43,10.4,43H8.8V32.6h3.1      c0.4,0,0.9-0.1,1.3-0.2l3.4-1.1c0.4-0.1,0.9-0.2,1.4,0l9.8,2.6c1.1,0.3,1.9,1.3,1.9,2.5c0,0.7-0.4,1.4-1,1.8s-1.3,0.6-2,0.4      L19.9,37c-0.4-0.1-0.9,0.2-1,0.6l0,0c-0.1,0.4,0.2,0.9,0.6,1l6.8,1.6c1.4,0.4,2.9,0,3.9-1.1s1.4-2.6,0.9-4l9.4-4.8      c0.6-0.3,1.2-0.4,1.8-0.2c0.6,0.2,1.1,0.6,1.5,1.1c0.2,0.4,0.3,0.8,0.3,1.2C44,33.1,43.5,33.9,42.8,34.3z"></path>
				<path class="st2" d="M44.1,12.6c2.3-3.4,1.7-8-1.5-10.6s-7.8-2.4-10.7,0.5l-2.3,2.3l-2.3-2.3c-3-3.1-8-3.2-11.2-0.2      s-3.4,7.9-0.5,11.2H12V15h5.3l12.3,12.3l13.1-13.1H48v-1.6C48,12.6,44.1,12.6,44.1,12.6z M29.6,25.1L19.5,15h2.6l2-4.6l4.7,8.6      l2.9-4.8H34l2.8-4.2l2.8,4.2h0.9L29.6,25.1z M42.1,11.9h-1.6l-3.6-5.1l-3.6,5.1h-2.4l-1.9,3l-4.9-8.5l-2.8,6.3h-3.1l-1-0.7      c-1.7-1.5-2.4-3.8-1.8-5.9s2.3-3.8,4.6-4.4s4.6,0.1,6.2,1.7l3.4,3.2L33,3.4c2.5-2.3,6.5-2.2,8.9,0.1S44.4,9.5,42.1,11.9z"></path>
			</g>
		</g>
	</g>
</g>
</svg>