<svg xmlns="http://www.w3.org/2000/svg" xmlns:xlink="http://www.w3.org/1999/xlink" width="88px" height="88px" viewBox="0 0 88 88"><title>Icon_ft_5</title><desc>Created with Sketch.</desc><g id="Page-1" stroke="none" stroke-width="1" fill="none" fill-rule="evenodd"><g id="Home-4" transform="translate(-1225.000000, -2979.000000)"><g id="Icon_ft_5" transform="translate(1225.000000, 2979.000000)"><g id="Group-31"><circle id="Oval" fill="#E3F8FA" cx="44" cy="44" r="44"></circle><g id="1976971" transform="translate(24.000000, 20.000000)" fill-rule="nonzero"><path d="M39.2,23.96 L39.2,7.4 L38.804,7.4 C32.8024533,7.3999251 26.9352027,5.62343809 21.9416,2.2944 L20,1 L18.088,2.28 C13.1226834,5.59679742 7.2903817,7.37756794 1.3192,7.4 L0.8,7.4 L0.8,23.96 C0.801500261,32.4430608 5.59492247,40.1974541 13.1824,43.9912 L20,47.4 L26.8176,43.9912 C34.4050775,40.1974541 39.1984997,32.4430608 39.2,23.96 Z M24.6712,39.6976 L20,42.0336 L15.3288,39.6976 C9.35170215,36.7344508 5.57877143,30.6312444 5.59991088,23.96 L5.59991088,11.924 C10.7216864,11.2839856 15.6387987,9.52065447 20,6.76 C24.3609432,9.52189696 29.2780384,11.2865878 34.4000891,11.928 L34.4000891,23.96 C34.4212286,30.6312444 30.6482978,36.7344508 24.6712,39.6976 Z" id="Shape" fill="#9BC9FF"></path><path d="M28,21 L24,21 C23.5581722,21 23.2,20.6418278 23.2,20.2 L23.2,16.2 C23.2,15.7581722 22.8418278,15.4 22.4,15.4 L17.6,15.4 C17.1581722,15.4 16.8,15.7581722 16.8,16.2 L16.8,20.2 C16.8,20.6418278 16.4418278,21 16,21 L12,21 C11.5581722,21 11.2,21.3581722 11.2,21.8 L11.2,26.6 C11.2,27.0418278 11.5581722,27.4 12,27.4 L16,27.4 C16.4418278,27.4 16.8,27.7581722 16.8,28.2 L16.8,32.2 C16.8,32.6418278 17.1581722,33 17.6,33 L22.4,33 C22.8418278,33 23.2,32.6418278 23.2,32.2 L23.2,28.2 C23.2,27.7581722 23.5581722,27.4 24,27.4 L28,27.4 C28.4418278,27.4 28.8,27.0418278 28.8,26.6 L28.8,21.8 C28.8,21.3581722 28.4418278,21 28,21 Z" id="Path" fill="#9BC9FF"></path><path d="M20,48.2944 L12.824,44.7064 C4.94510976,40.7997535 -0.0280970408,32.7542031 -0.000118432172,23.96 L-0.000118432172,6.6 L1.316,6.6 C7.13088721,6.58170719 12.8108602,4.84646138 17.6432,1.612 L20,0.04 L22.3856,1.6304 C27.2458322,4.87622278 32.9603849,6.60584671 38.8048,6.6 L40.0001184,6.6 L40.0001184,23.96 C40.028097,32.7542031 35.0548902,40.7997535 27.176,44.7064 L20,48.2944 Z M1.5998888,8.2 L1.5998888,23.96 C1.57372915,32.1477481 6.20421187,39.6384265 13.54,43.2752 L20,46.5056 L26.46,43.2752 C33.7957881,39.6384265 38.4262708,32.1477481 38.4001112,23.96 L38.4001112,8.2 C32.3773515,8.12674074 26.5055293,6.30638693 21.4976,2.96 L20,1.96 L18.532,2.9424 C13.5175917,6.30048613 7.63454557,8.12724629 1.5998888,8.2 Z" id="Shape" fill="#1E81CE"></path><path d="M34.4992,11.132 C29.4930891,10.5106322 24.68735,8.78567028 20.4288,6.0816 L20,5.8112 L19.5728,6.0816 C15.3131609,8.78554983 10.5062897,10.5099793 5.4992,11.1304 L4.79990899,11.2176 L4.79990899,23.96 C4.77806583,30.934625 8.72246528,37.3153442 14.9712,40.4136 L20,42.928 L25.0288,40.4136 C31.2775347,37.3153442 35.2219342,30.934625 35.200091,23.96 L35.200091,11.22 L34.4992,11.132 Z M33.6000819,23.96 C33.6198784,30.3278835 30.0186558,36.1535002 24.3136,38.9824 L20,41.1392 L15.6864,38.9792 C9.9823817,36.15081 6.38134269,30.3267312 6.39992785,23.96 L6.39992785,12.6232 C11.2224549,11.9300322 15.8513068,10.2543879 20,7.7 C24.1488746,10.254313 28.777598,11.9304554 33.6000819,12.6248 L33.6000819,23.96 Z" id="Shape" fill="#1E81CE"></path><path d="M28,20.2 L24,20.2 L24,16.2 C24,15.3163444 23.2836556,14.6 22.4,14.6 L17.6,14.6 C16.7163444,14.6 16,15.3163444 16,16.2 L16,20.2 L12,20.2 C11.1163444,20.2 10.4,20.9163444 10.4,21.8 L10.4,26.6 C10.4,27.4836556 11.1163444,28.2 12,28.2 L16,28.2 L16,32.2 C16,33.0836556 16.7163444,33.8 17.6,33.8 L22.4,33.8 C23.2836556,33.8 24,33.0836556 24,32.2 L24,28.2 L28,28.2 C28.8836556,28.2 29.6,27.4836556 29.6,26.6 L29.6,21.8 C29.6,20.9163444 28.8836556,20.2 28,20.2 Z M28,26.6 L24,26.6 C23.1163444,26.6 22.4,27.3163444 22.4,28.2 L22.4,32.2 L17.6,32.2 L17.6,28.2 C17.6,27.3163444 16.8836556,26.6 16,26.6 L12,26.6 L12,21.8 L16,21.8 C16.8836556,21.8 17.6,21.0836556 17.6,20.2 L17.6,16.2 L22.4,16.2 L22.4,20.2 C22.4,21.0836556 23.1163444,21.8 24,21.8 L28,21.8 L28,26.6 Z" id="Shape" fill="#1E81CE"></path></g></g></g></g></g></svg>