<svg xmlns="http://www.w3.org/2000/svg" xmlns:xlink="http://www.w3.org/1999/xlink" width="56px" height="56px" viewBox="0 0 56 56"><title>Icon1</title><desc>Created with Sketch.</desc><g id="Page-1" stroke="none" stroke-width="1" fill="none" fill-rule="evenodd"><g id="Home-4" transform="translate(-375.000000, -1381.000000)" fill-rule="nonzero"><g id="Icon1" transform="translate(375.000000, 1381.000000)"><path d="M45.5,56 L10.5,56 C4.7005,56 0,51.2995 0,45.5 L0,10.5 C0,4.7005 4.7005,0 10.5,0 L45.5,0 C51.2995,0 56,4.7005 56,10.5 L56,45.5 C56,51.2995 51.2995,56 45.5,56 Z" id="Path" fill="#FFE6E2"></path><path d="M38.79225,14 L17.20775,14 C15.4385,14 14,15.4385 14,17.20775 L14,32.95775 C14,34.727 15.4385,36.1655 17.20775,36.1655 L18.6655,36.1655 L18.6655,41.125 C18.6655,41.4785 18.879,41.797 19.20625,41.9335 C19.31475,41.979 19.4285,42 19.54225,42 C19.76975,42 19.99375,41.91075 20.16175,41.7445 L25.739,36.16725 L38.794,36.16725 C40.56325,36.16725 42.00175,34.72875 42.00175,32.9595 L42.00175,17.2095 C42,15.4385 40.5615,14 38.79225,14 L38.79225,14 Z M35,25.95775 C35,27.08475 34.08475,28 32.95775,28 L30.33275,28 L30.33275,30.625 C30.33275,31.75025 29.4175,32.66725 28.2905,32.66725 L27.70775,32.66725 C26.5825,32.66725 25.6655,31.752 25.6655,30.625 L25.6655,28 L23.0405,28 C21.91525,28 21,27.08475 21,25.95775 L21,25.375 C21,24.24975 21.91525,23.33275 23.04225,23.33275 L25.66725,23.33275 L25.66725,20.70775 C25.66725,19.5825 26.5825,18.6655 27.7095,18.6655 L28.29225,18.6655 C29.4175,18.6655 30.3345,19.58075 30.3345,20.70775 L30.3345,23.33275 L32.9595,23.33275 C34.08475,23.33275 35.00175,24.248 35.00175,25.375 L35.00175,25.95775 L35,25.95775 Z" id="Shape" fill="#FC573B"></path></g></g></g></svg>