<svg xmlns="http://www.w3.org/2000/svg" xmlns:xlink="http://www.w3.org/1999/xlink" id="Layer_1" x="0px" y="0px" viewBox="0 0 56 56" style="enable-background:new 0 0 56 56;" xml:space="preserve">
<style type="text/css">
	.st0-icon3{fill:#E3F8FA;}
	.st1-icon3{fill:#26C6DA;}
</style>
<title>Icon3</title>
<desc>Created with Sketch.</desc>
<g id="Page-1">
	<g id="Home-4" transform="translate(-375.000000, -1505.000000)">
		<g id="Icon3" transform="translate(375.000000, 1505.000000)">
			<path id="Path" class="st0-icon3" d="M45.5,56h-35C4.7,56,0,51.3,0,45.5v-35C0,4.7,4.7,0,10.5,0h35C51.3,0,56,4.7,56,10.5v35     C56,51.3,51.3,56,45.5,56z"></path>
			<path class="st1-icon3" d="M29.7,42h-3.4c-1.1,0-2-0.9-2-2v-5.5l-4.8,2.8c-1,0.5-2.2,0.2-2.8-0.7l-1.7-3c-0.3-0.5-0.3-1-0.2-1.5     c0.1-0.5,0.5-1,0.9-1.2l4.8-2.8l-4.8-2.8C15.3,25,15,24.5,14.8,24c-0.1-0.5-0.1-1.1,0.2-1.5l1.7-3c0.6-1,1.8-1.3,2.8-0.7l4.8,2.8     V16c0-1.1,0.9-2,2-2h3.4c1.1,0,2,0.9,2,2v5.5l4.8-2.8c1-0.5,2.2-0.2,2.8,0.7l1.7,3c0.3,0.5,0.3,1,0.2,1.5c-0.1,0.5-0.5,1-0.9,1.2     L35.5,28l4.8,2.8c0.5,0.3,0.8,0.7,0.9,1.2c0.1,0.5,0.1,1.1-0.2,1.5l-1.7,3c-0.6,1-1.8,1.3-2.8,0.7l-4.8-2.8V40     C31.7,41.1,30.8,42,29.7,42L29.7,42z"></path>
		</g>
	</g>
</g>
</svg>