<svg xmlns="http://www.w3.org/2000/svg" xmlns:xlink="http://www.w3.org/1999/xlink" width="22px" height="23px" viewBox="0 0 22 23"><title>Icon_social_3</title><desc>Created with Sketch.</desc><g id="Page-1" stroke="none" stroke-width="1" fill="none" fill-rule="evenodd" opacity="0.300000012"><g id="Home-4" transform="translate(-1364.000000, -6906.000000)" fill="#333333" fill-rule="nonzero"><g id="Group-9" transform="translate(0.000000, 5686.000000)"><g id="Group-27-Copy" transform="translate(1.000000, 800.000000)"><g id="FOOTER-Copy" transform="translate(0.000000, 133.000000)"><g id="social" transform="translate(1256.000000, 288.000000)"><g id="1-copy-14" transform="translate(107.000000, 4.000000)"><path d="M16.40625,17.5625 C17.9036458,17.5625 19.1894531,17.0253906 20.2636719,15.9511719 C21.3378906,14.8769531 21.875,13.5911458 21.875,12.09375 C21.875,10.8567708 21.500651,9.75 20.7519531,8.7734375 C20.8821615,8.02473958 20.9472656,7.30859375 20.9472656,6.625 C20.9472656,3.85807292 19.9707031,1.49804688 18.0175781,-0.455078125 C16.0644531,-2.40820312 13.7044271,-3.38476562 10.9375,-3.38476562 C10.2213542,-3.38476562 9.50520833,-3.31966146 8.7890625,-3.18945312 C7.8125,-3.93815104 6.70572917,-4.3125 5.46875,-4.3125 C3.97135417,-4.3125 2.68554688,-3.77539062 1.61132812,-2.70117188 C0.537109375,-1.62695312 0,-0.341145833 0,1.15625 C0,2.39322917 0.374348958,3.5 1.12304688,4.4765625 C0.992838542,5.22526042 0.927734375,5.94140625 0.927734375,6.625 C0.927734375,9.39192708 1.90429688,11.7519531 3.85742188,13.7050781 C5.81054688,15.6582031 8.17057292,16.6347656 10.9375,16.6347656 C11.6536458,16.6347656 12.3697917,16.5696615 13.0859375,16.4394531 C14.0625,17.188151 15.1692708,17.5625 16.40625,17.5625 Z M11.2304688,13.2167969 C9.63541667,13.2167969 8.26009115,12.9075521 7.10449219,12.2890625 C5.94889323,11.6705729 5.37109375,10.921875 5.37109375,10.0429688 C5.37109375,9.61979167 5.49316406,9.26985677 5.73730469,8.99316406 C5.98144531,8.71647135 6.33138021,8.578125 6.78710938,8.578125 C7.11263021,8.578125 7.43001302,8.69205729 7.73925781,8.91992188 C8.0485026,9.14778646 8.30891927,9.4000651 8.52050781,9.67675781 C8.73209635,9.95345052 9.06575521,10.2057292 9.52148438,10.4335938 C9.97721354,10.6614583 10.4980469,10.7753906 11.0839844,10.7753906 C11.702474,10.7753906 12.2070312,10.6533203 12.5976562,10.4091797 C12.9882812,10.1650391 13.1835938,9.84765625 13.1835938,9.45703125 C13.1835938,9.1640625 13.0777995,8.9280599 12.8662109,8.74902344 C12.6546224,8.56998698 12.4511719,8.45605469 12.2558594,8.40722656 C12.0605469,8.35839844 11.6861979,8.25260417 11.1328125,8.08984375 C10.9700521,8.05729167 10.6363932,7.98404948 10.1318359,7.87011719 C9.62727865,7.7561849 9.29361979,7.67480469 9.13085938,7.62597656 C8.96809896,7.57714844 8.68326823,7.49576823 8.27636719,7.38183594 C7.86946615,7.26790365 7.59277344,7.16210938 7.44628906,7.06445312 C7.29980469,6.96679688 7.08007812,6.83658854 6.78710938,6.67382812 C6.49414062,6.51106771 6.28255208,6.34830729 6.15234375,6.18554688 C6.02213542,6.02278646 5.88378906,5.82747396 5.73730469,5.59960938 C5.59082031,5.37174479 5.49316406,5.11132812 5.44433594,4.81835938 C5.39550781,4.52539062 5.37109375,4.19986979 5.37109375,3.84179688 C5.37109375,2.50716146 5.9000651,1.51432292 6.95800781,0.86328125 C8.01595052,0.212239583 9.25292969,-0.11328125 10.6689453,-0.11328125 C12.0849609,-0.11328125 13.3463542,0.138997396 14.453125,0.643554688 C15.5598958,1.14811198 16.1132812,1.79101562 16.1132812,2.57226562 C16.1132812,2.80013021 16.0725911,3.00358073 15.9912109,3.18261719 C15.9098307,3.36165365 15.8121745,3.52441406 15.6982422,3.67089844 C15.5843099,3.81738281 15.4296875,3.9313151 15.234375,4.01269531 C15.0390625,4.09407552 14.827474,4.13476562 14.5996094,4.13476562 C14.2415365,4.13476562 13.9078776,3.99641927 13.5986328,3.71972656 C13.289388,3.44303385 12.9313151,3.17447917 12.5244141,2.9140625 C12.117513,2.65364583 11.5885417,2.5234375 10.9375,2.5234375 C9.5703125,2.5234375 8.88671875,2.88151042 8.88671875,3.59765625 C8.88671875,3.82552083 8.92740885,4.00455729 9.00878906,4.13476562 C9.09016927,4.26497396 9.26920573,4.38704427 9.54589844,4.50097656 C9.82259115,4.61490885 10.0748698,4.70442708 10.3027344,4.76953125 C10.530599,4.83463542 10.921224,4.93229167 11.4746094,5.0625 C11.8326823,5.12760417 12.093099,5.17643229 12.2558594,5.20898438 C15.218099,5.89257812 16.6992188,7.16210938 16.6992188,9.01757812 C16.6992188,10.3522135 16.1539714,11.3857422 15.0634766,12.1181641 C13.9729818,12.8505859 12.6953125,13.2167969 11.2304688,13.2167969 Z" id="Icon_social_3"></path></g></g></g></g></g></g></g></svg>