<svg xmlns="http://www.w3.org/2000/svg" xmlns:xlink="http://www.w3.org/1999/xlink" id="Layer_1" x="0px" y="0px" viewBox="0 0 88 88" style="enable-background:new 0 0 88 88;" xml:space="preserve">
<style type="text/css">
	.st0{fill-rule:evenodd;clip-rule:evenodd;fill:#E3F8FA;}
	.st1{fill:#9BC9FF;}
	.st2{fill:#1E81CE;}
</style>
<title>Icon_ft_6</title>
<desc>Created with Sketch.</desc>
<g id="Page-1">
	<g id="Home-4" transform="translate(-607.000000, -2979.000000)">
		<g id="Icon_ft_6" transform="translate(607.000000, 2979.000000)">
			<circle id="Oval" class="st0" cx="44" cy="44" r="44"></circle>
			<g transform="translate(20.000000, 20.000000)">
				<path id="Shape" class="st1" d="M24,47.2c12.8,0,23.2-10.4,23.2-23.2S36.8,0.8,24,0.8S0.8,11.2,0.8,24S11.2,47.2,24,47.2      L24,47.2z M9.6,20.8c0-0.9,0.7-1.6,1.6-1.6h6.4c0.9,0,1.6-0.7,1.6-1.6v-6.4c0-0.9,0.7-1.6,1.6-1.6h6.4c0.9,0,1.6,0.7,1.6,1.6      v6.4c0,0.9,0.7,1.6,1.6,1.6h6.4c0.9,0,1.6,0.7,1.6,1.6v6.4c0,0.9-0.7,1.6-1.6,1.6h-6.4c-0.9,0-1.6,0.7-1.6,1.6v6.4      c0,0.9-0.7,1.6-1.6,1.6h-6.4c-0.9,0-1.6-0.7-1.6-1.6v-6.4c0-0.9-0.7-1.6-1.6-1.6h-6.4c-0.9,0-1.6-0.7-1.6-1.6V20.8z"></path>
				<g id="Group">
					<path class="st2" d="M24,48C10.7,48,0,37.3,0,24S10.7,0,24,0s24,10.7,24,24C48,37.2,37.2,48,24,48L24,48z M24,1.6       C11.6,1.6,1.6,11.6,1.6,24s10,22.4,22.4,22.4s22.4-10,22.4-22.4C46.4,11.6,36.4,1.6,24,1.6L24,1.6z"></path>
					<path class="st2" d="M36.8,18.4h-6.4c-0.4,0-0.8-0.4-0.8-0.8v-6.4c0-1.3-1.1-2.4-2.4-2.4h-6.4c-1.3,0-2.4,1.1-2.4,2.4v6.4       c0,0.4-0.4,0.8-0.8,0.8h-6.4c-1.3,0-2.4,1.1-2.4,2.4v6.4c0,1.3,1.1,2.4,2.4,2.4h6.4c0.4,0,0.8,0.4,0.8,0.8v6.4       c0,1.3,1.1,2.4,2.4,2.4h6.4c1.3,0,2.4-1.1,2.4-2.4v-6.4c0-0.4,0.4-0.8,0.8-0.8h6.4c1.3,0,2.4-1.1,2.4-2.4v-6.4       C39.2,19.5,38.1,18.4,36.8,18.4z M37.6,27.2c0,0.4-0.4,0.8-0.8,0.8h-6.4c-1.3,0-2.4,1.1-2.4,2.4v6.4c0,0.4-0.4,0.8-0.8,0.8       h-6.4c-0.4,0-0.8-0.4-0.8-0.8v-6.4c0-1.3-1.1-2.4-2.4-2.4h-6.4c-0.4,0-0.8-0.4-0.8-0.8v-6.4c0-0.4,0.4-0.8,0.8-0.8h6.4       c1.3,0,2.4-1.1,2.4-2.4v-6.4c0-0.4,0.4-0.8,0.8-0.8h6.4c0.4,0,0.8,0.4,0.8,0.8v6.4c0,1.3,1.1,2.4,2.4,2.4h6.4       c0.4,0,0.8,0.4,0.8,0.8V27.2z"></path>
				</g>
			</g>
		</g>
	</g>
</g>
</svg>