<svg xmlns="http://www.w3.org/2000/svg" xmlns:xlink="http://www.w3.org/1999/xlink" width="20px" height="21px" viewBox="0 0 20 21"><title>Icon_header_3</title><desc>Created with Sketch.</desc><g id="Page-1" stroke="none" stroke-width="1" fill="none" fill-rule="evenodd"><g id="Home-4" transform="translate(-882.000000, -205.000000)" fill="#4E97FD" fill-rule="nonzero"><g id="Phone" transform="translate(375.000000, 188.000000)"><path d="M517.3125,37.5 C517.520833,37.5 517.625,37.3958333 517.625,37.1875 L517.625,37.1875 L517.625,34.9609375 C519.447917,34.8046875 521.003906,34.0820312 522.292969,32.7929688 C523.582031,31.5039062 524.304688,29.9479167 524.460938,28.125 L524.460938,28.125 L526.6875,28.125 C526.895833,28.125 527,28.0208333 527,27.8125 L527,27.8125 L527,27.1875 C527,26.9791667 526.895833,26.875 526.6875,26.875 L526.6875,26.875 L524.460938,26.875 C524.304688,25.0520833 523.582031,23.4960938 522.292969,22.2070312 C521.003906,20.9179688 519.447917,20.1953125 517.625,20.0390625 L517.625,20.0390625 L517.625,17.8125 C517.625,17.6041667 517.520833,17.5 517.3125,17.5 L517.3125,17.5 L516.6875,17.5 C516.479167,17.5 516.375,17.6041667 516.375,17.8125 L516.375,17.8125 L516.375,20.0390625 C514.552083,20.1953125 512.996094,20.9179688 511.707031,22.2070312 C510.417969,23.4960938 509.695312,25.0520833 509.539062,26.875 L509.539062,26.875 L507.3125,26.875 C507.104167,26.875 507,26.9791667 507,27.1875 L507,27.1875 L507,27.8125 C507,28.0208333 507.104167,28.125 507.3125,28.125 L507.3125,28.125 L509.539062,28.125 C509.695312,29.9479167 510.417969,31.5039062 511.707031,32.7929688 C512.996094,34.0820312 514.552083,34.8046875 516.375,34.9609375 L516.375,34.9609375 L516.375,37.1875 C516.375,37.3958333 516.479167,37.5 516.6875,37.5 L516.6875,37.5 L517.3125,37.5 Z M517,33.75 C515.28125,33.75 513.809896,33.1380208 512.585938,31.9140625 C511.361979,30.6901042 510.75,29.21875 510.75,27.5 C510.75,25.78125 511.361979,24.3098958 512.585938,23.0859375 C513.809896,21.8619792 515.28125,21.25 517,21.25 C518.71875,21.25 520.190104,21.8619792 521.414062,23.0859375 C522.638021,24.3098958 523.25,25.78125 523.25,27.5 C523.25,29.21875 522.638021,30.6901042 521.414062,31.9140625 C520.190104,33.1380208 518.71875,33.75 517,33.75 Z M517,31.25 C518.041667,31.25 518.927083,30.8854167 519.65625,30.15625 C520.385417,29.4270833 520.75,28.5416667 520.75,27.5 C520.75,26.4583333 520.385417,25.5729167 519.65625,24.84375 C518.927083,24.1145833 518.041667,23.75 517,23.75 C515.958333,23.75 515.072917,24.1145833 514.34375,24.84375 C513.614583,25.5729167 513.25,26.4583333 513.25,27.5 C513.25,28.5416667 513.614583,29.4270833 514.34375,30.15625 C515.072917,30.8854167 515.958333,31.25 517,31.25 Z M517,30 C516.322917,30 515.736979,29.7526042 515.242188,29.2578125 C514.747396,28.7630208 514.5,28.1770833 514.5,27.5 C514.5,26.8229167 514.747396,26.2369792 515.242188,25.7421875 C515.736979,25.2473958 516.322917,25 517,25 C517.677083,25 518.263021,25.2473958 518.757812,25.7421875 C519.252604,26.2369792 519.5,26.8229167 519.5,27.5 C519.5,28.1770833 519.252604,28.7630208 518.757812,29.2578125 C518.263021,29.7526042 517.677083,30 517,30 Z" id="Icon_header_3"></path></g></g></g></svg>