<svg xmlns="http://www.w3.org/2000/svg" xmlns:xlink="http://www.w3.org/1999/xlink" width="88px" height="88px" viewBox="0 0 88 88"><title>Icon_ft_4</title><desc>Created with Sketch.</desc><g id="Page-1" stroke="none" stroke-width="1" fill="none" fill-rule="evenodd"><g id="Home-4" transform="translate(-607.000000, -2755.000000)"><g id="Icon_ft_4" transform="translate(607.000000, 2755.000000)"><circle id="Oval" fill="#E3F8FA" cx="44" cy="44" r="44"></circle><g id="1976994" transform="translate(20.000000, 20.000000)" fill-rule="nonzero"><path d="M36.628,20.0912 C36.3144673,19.3660716 36.1264569,18.5929297 36.072,17.8048 C35.5672,8.708 28.34,1.1384 19.14,0.8112 C11.8375692,0.542241008 5.12855848,4.81359232 2.28223756,11.5438443 C-0.564083365,18.2740963 1.04444729,26.0630562 6.324,31.1152 C6.94764437,31.7139127 7.30012363,32.5410833 7.3,33.4056 L7.3,47.2 L24.9,47.2 L24.9,42.4 C24.9,41.9581722 25.2581722,41.6 25.7,41.6 L27.4544,41.6 C28.524243,41.5999817 29.5233046,41.0653276 30.1168,40.1752 L32.0712,37.244 C32.2350657,36.9983936 32.250331,36.6824972 32.1109108,36.4222349 C31.9714906,36.1619727 31.700053,35.9996604 31.4048,36 L28.4848,36 C28.2417773,36.0000912 28.0118892,35.8897095 27.86,35.7 L25.94,33.3 C25.7477283,33.0598527 25.7101927,32.7307277 25.8434545,32.4534545 C25.9767163,32.1761813 26.2571653,31.9998845 26.5648,32 L33.7,32 L33.7,29.6 C33.7,29.1581722 34.0581722,28.8 34.5,28.8 L37.8544,28.8 C38.3717157,28.799898 38.857061,28.5496865 39.1572186,28.1283542 C39.4573762,27.7070218 39.5353036,27.1665654 39.3664,26.6776 L36.628,20.0912 Z" id="Path" fill="#9BC9FF"></path><g id="Group" fill="#1E81CE"><path d="M40.1048,26.3704 L37.3664,19.784 C37.0888712,19.1421557 36.9212021,18.4582278 36.8704,17.7608 C36.34,8.1424 28.5624,0.3464 19.1704,0.012 C11.5368794,-0.268087731 4.52417071,4.19734625 1.548876,11.2327359 C-1.4264187,18.2681255 0.254545358,26.4101488 5.7728,31.692 C6.23671207,32.1415257 6.49901371,32.7596226 6.5,33.4056 L6.5,48 L25.7,48 L25.7,42.4 L27.4536,42.4 C28.7916605,42.4015468 30.0415064,41.7326194 30.7824,40.6184 L32.74,37.6872 C33.0674475,37.1957747 33.0975897,36.5639398 32.8184103,36.0435749 C32.539231,35.52321 31.9961248,35.1989268 31.4056,35.2 L28.4848,35.2 L26.5648,32.8 L34.5,32.8 L34.5,29.6 L37.8544,29.6 C38.6387886,29.5994583 39.3734144,29.2156451 39.8218506,28.5720841 C40.2702869,27.9285231 40.3759372,27.1064369 40.1048,26.3704 L40.1048,26.3704 Z M38.5048,27.6648 C38.3551907,27.8762384 38.1118121,28.0013618 37.8528,28 L34.5,28 C33.6163444,28 32.9,28.7163444 32.9,29.6 L32.9,31.2 L26.5648,31.2 C25.9495305,31.1997691 25.3886326,31.5523626 25.122109,32.106909 C24.8555855,32.6614554 24.9306565,33.3197054 25.3152,33.8 L27.2352,36.2 C27.5379022,36.5803313 27.9979149,36.8013496 28.484,36.8 L31.4056,36.8 L29.4504,39.732 C29.005141,40.3993673 28.2558685,40.8001201 27.4536,40.8 L25.7,40.8 C24.8163444,40.8 24.1,41.5163444 24.1,42.4 L24.1,46.4 L8.1,46.4 L8.1,33.4048 C8.09781771,32.3235672 7.65801156,31.2892724 6.8808,30.5376 C3.57942022,27.3754408 1.7087779,23.0047719 1.70014404,18.4333076 C1.69156981,13.8618434 3.54574669,9.48416396 6.8352,6.3096 C10.1088678,3.12286611 14.5496422,1.42368909 19.1144,1.6112 C27.6864,1.916 34.7848,9.0512 35.2744,17.8512 C35.3341004,18.729439 35.5421083,19.5912247 35.8896,20.4 L38.6096,26.94 C38.6950748,27.1840106 38.6565837,27.4543435 38.5064,27.6648 L38.5048,27.6648 Z" id="Shape"></path><polygon id="Path" points="37.7 32 39.3 32 39.3 33.6 37.7 33.6"></polygon><polygon id="Path" points="37.7 35.2 39.3 35.2 39.3 36.8 37.7 36.8"></polygon><polygon id="Path" points="40.9 33.6 42.5 33.6 42.5 35.2 40.9 35.2"></polygon><polygon id="Path" points="35.3 33.6 36.9 33.6 36.9 35.2 35.3 35.2"></polygon><polygon id="Path" points="44.1 33.6 48.1 33.6 48.1 35.2 44.1 35.2"></polygon><polygon id="Path" transform="translate(40.947207, 31.607054) rotate(-30.000728) translate(-40.947207, -31.607054) " points="40.1476248 30.8074712 41.7467896 30.8074712 41.7467896 32.406636 40.1476248 32.406636"></polygon><polygon id="Path" transform="translate(44.759560, 29.394400) rotate(-30.000728) translate(-44.759560, -29.394400) " points="42.759604 28.5944176 46.759516 28.5944176 46.759516 30.1943824 42.759604 30.1943824"></polygon><polygon id="Path" transform="translate(40.945054, 37.193193) rotate(-59.999272) translate(-40.945054, -37.193193) " points="40.1454712 36.3936104 41.744636 36.3936104 41.744636 37.9927752 40.1454712 37.9927752"></polygon><polygon id="Path" transform="translate(44.759200, 39.401240) rotate(-59.999272) translate(-44.759200, -39.401240) " points="43.9592176 37.401284 45.5591824 37.401284 45.5591824 41.401196 43.9592176 41.401196"></polygon></g></g></g></g></g></svg>