<svg xmlns="http://www.w3.org/2000/svg" xmlns:xlink="http://www.w3.org/1999/xlink" width="88px" height="88px" viewBox="0 0 88 88"><title>Icon_ft_3</title><desc>Created with Sketch.</desc><g id="Page-1" stroke="none" stroke-width="1" fill="none" fill-rule="evenodd"><g id="Home-4" transform="translate(-1225.000000, -2755.000000)"><g id="Icon_ft_3" transform="translate(1225.000000, 2755.000000)"><circle id="Oval" fill="#E3F8FA" cx="44" cy="44" r="44"></circle><g id="1976897" transform="translate(20.000000, 20.000000)" fill-rule="nonzero"><path d="M24,47.2 C36.8130062,47.2 47.2,36.8130062 47.2,24 C47.2,11.1869938 36.8130062,0.8 24,0.8 C11.1869938,0.8 0.8,11.1869938 0.8,24 C0.8,36.8130062 11.1869938,47.2 24,47.2 L24,47.2 Z M24,4 C35.045695,4 44,12.954305 44,24 C44,35.045695 35.045695,44 24,44 C12.954305,44 4,35.045695 4,24 C4,12.954305 12.954305,4 24,4 Z" id="Shape" fill="#9BC9FF"></path><circle id="Oval" fill="#9BC9FF" cx="15.2" cy="15.2" r="3.2"></circle><ellipse id="Oval" fill="#9BC9FF" cx="24" cy="34.4" rx="1.6" ry="3.2"></ellipse><path d="M23.2,24 C23.2,24.8836556 23.9163444,25.6 24.8,25.6 L29.6,25.6 C30.4836556,25.6 31.2,24.8836556 31.2,24 C31.2,23.1163444 30.4836556,22.4 29.6,22.4 L24.8,22.4 C23.9163444,22.4 23.2,23.1163444 23.2,24 Z" id="Path" fill="#9BC9FF"></path><circle id="Oval" fill="#9BC9FF" cx="32.8" cy="31.2" r="1"></circle><circle id="Oval" fill="#9BC9FF" cx="36.8" cy="29.6" r="1"></circle><circle id="Oval" fill="#9BC9FF" cx="10.4" cy="24" r="1"></circle><circle id="Oval" fill="#9BC9FF" cx="38.4" cy="21.6" r="1.6"></circle><g id="Group" fill="#1E81CE"><path d="M24,48 C10.745166,48 -5.68434189e-15,37.254834 -5.68434189e-15,24 C-5.68434189e-15,10.745166 10.745166,-5.68434189e-15 24,-5.68434189e-15 C37.254834,-5.68434189e-15 48,10.745166 48,24 C47.9850104,37.2486201 37.2486201,47.9850104 24,48 L24,48 Z M24,1.6 C11.6288216,1.6 1.6,11.6288216 1.6,24 C1.6,36.3711784 11.6288216,46.4 24,46.4 C36.3711784,46.4 46.4,36.3711784 46.4,24 C46.3858924,11.6346699 36.3653301,1.61410764 24,1.6 L24,1.6 Z" id="Shape"></path><path d="M24,44.8 C12.5124772,44.8 3.2,35.4875228 3.2,24 C3.2,12.5124772 12.5124772,3.2 24,3.2 C35.4875228,3.2 44.8,12.5124772 44.8,24 C44.7867744,35.4820401 35.4820401,44.7867744 24,44.8 Z M24,4.8 C13.3961328,4.8 4.8,13.3961328 4.8,24 C4.8,34.6038672 13.3961328,43.2 24,43.2 C34.6038672,43.2 43.2,34.6038672 43.2,24 C43.1876564,13.4012499 34.5987501,4.81234362 24,4.8 Z" id="Shape"></path><path d="M15.2,19.2 C12.990861,19.2 11.2,17.409139 11.2,15.2 C11.2,12.990861 12.990861,11.2 15.2,11.2 C17.409139,11.2 19.2,12.990861 19.2,15.2 C19.1973551,17.4080425 17.4080425,19.1973551 15.2,19.2 L15.2,19.2 Z M15.2,12.8 C13.8745166,12.8 12.8,13.8745166 12.8,15.2 C12.8,16.5254834 13.8745166,17.6 15.2,17.6 C16.5254834,17.6 17.6,16.5254834 17.6,15.2 C17.6,13.8745166 16.5254834,12.8 15.2,12.8 Z" id="Shape"></path><path d="M24,38.4 C22.632,38.4 21.6,36.6808 21.6,34.4 C21.6,32.1192 22.632,30.4 24,30.4 C25.368,30.4 26.4,32.1192 26.4,34.4 C26.4,36.6808 25.368,38.4 24,38.4 Z M24,32 C23.8008,32 23.2,32.8512 23.2,34.4 C23.2,35.9488 23.8008,36.8 24,36.8 C24.1992,36.8 24.8,35.9488 24.8,34.4 C24.8,32.8512 24.1992,32 24,32 Z" id="Shape"></path><path d="M23.2,17.6000006 C22.8472985,17.6004322 22.5359278,17.3698321 22.4334986,17.0323312 C22.3310693,16.6948304 22.4617518,16.33007 22.7552,16.1344 L24.0088,15.2992 L22.0424,14.32 C21.7708684,14.1846692 21.5992529,13.9073873 21.5992529,13.604 C21.5992529,13.3006127 21.7708684,13.0233308 22.0424,12.888 L24.0096,11.9048 L22.756,11.0696 C22.5334759,10.9212215 22.3998205,10.6714569 22.3998205,10.404 C22.3998205,10.1365431 22.5334759,9.88677854 22.756,9.7384 L25.156,8.1384 C25.5236007,7.89318557 26.0203856,7.99239927 26.2656,8.36 C26.5108144,8.72760073 26.4116007,9.22438557 26.044,9.4696 L24.64,10.4 L26.0416,11.3344 C26.2790555,11.4926096 26.4142716,11.7653158 26.3964627,12.0500933 C26.3786538,12.3348709 26.2105161,12.5886064 25.9552,12.716 L24.1888,13.6 L25.9576,14.484 C26.2129161,14.6113936 26.3810538,14.8651291 26.3988627,15.1499067 C26.4166716,15.4346842 26.2814555,15.7073904 26.044,15.8656 L23.644,17.4656 C23.5125225,17.5532689 23.3580258,17.6000006 23.2,17.6000006 L23.2,17.6000006 Z" id="Path"></path><path d="M29.6,26.4 L24.8,26.4 C23.4745166,26.4 22.4,25.3254834 22.4,24 C22.4,22.6745166 23.4745166,21.6 24.8,21.6 L29.6,21.6 C30.9254834,21.6 32,22.6745166 32,24 C32,25.3254834 30.9254834,26.4 29.6,26.4 Z M24.8,23.2 C24.3581722,23.2 24,23.5581722 24,24 C24,24.4418278 24.3581722,24.8 24.8,24.8 L29.6,24.8 C30.0418278,24.8 30.4,24.4418278 30.4,24 C30.4,23.5581722 30.0418278,23.2 29.6,23.2 L24.8,23.2 Z" id="Shape"></path><path d="M32.8,32.8 C31.9163444,32.8 31.2,32.0836556 31.2,31.2 C31.2,30.3163444 31.9163444,29.6 32.8,29.6 C33.6836556,29.6 34.4,30.3163444 34.4,31.2 C34.4,32.0836556 33.6836556,32.8 32.8,32.8 Z" id="Path"></path><path d="M36.8,31.2 C35.9163444,31.2 35.2,30.4836556 35.2,29.6 C35.2,28.7163444 35.9163444,28 36.8,28 C37.6836556,28 38.4,28.7163444 38.4,29.6 C38.4,30.4836556 37.6836556,31.2 36.8,31.2 Z" id="Path"></path><path d="M10.4,25.6 C9.5163444,25.6 8.8,24.8836556 8.8,24 C8.8,23.1163444 9.5163444,22.4 10.4,22.4 C11.2836556,22.4 12,23.1163444 12,24 C12,24.8836556 11.2836556,25.6 10.4,25.6 Z" id="Path"></path><path d="M38.4,24 C37.0745166,24 36,22.9254834 36,21.6 C36,20.2745166 37.0745166,19.2 38.4,19.2 C39.7254834,19.2 40.8,20.2745166 40.8,21.6 C40.8,22.9254834 39.7254834,24 38.4,24 L38.4,24 Z M38.4,20.8 C37.9581722,20.8 37.6,21.1581722 37.6,21.6 C37.6,22.0418278 37.9581722,22.4 38.4,22.4 C38.8418278,22.4 39.2,22.0418278 39.2,21.6 C39.2,21.1581722 38.8418278,20.8 38.4,20.8 Z" id="Shape"></path><path d="M13.6,29.6 C13.2252566,29.6045967 12.8975486,29.3484259 12.81154,28.9836571 C12.7255313,28.6188883 12.9042774,28.2433009 13.2416,28.08 L14.8416,27.28 C15.0974022,27.1522418 15.4019313,27.1706572 15.6404742,27.3283093 C15.8790171,27.4859614 16.0153335,27.7588991 15.9980742,28.0443093 C15.9808149,28.3297196 15.8126022,28.5842418 15.5568,28.712 L13.9568,29.512 C13.8463066,29.5686229 13.7241506,29.5987511 13.6,29.6 L13.6,29.6 Z" id="Path"></path><path d="M30.4,39.2000009 C30.1228479,39.199852 29.8655171,39.0562657 29.7198444,38.8204845 C29.5741717,38.5847033 29.560913,38.290322 29.6848,38.0424 L30.4848,36.4424 C30.682297,36.0469641 31.1629641,35.886503 31.5584,36.084 C31.9538359,36.281497 32.114297,36.7621641 31.9168,37.1576 L31.1168,38.7576 C30.9811317,39.0290995 30.7035089,39.2004448 30.4,39.2000009 Z" id="Path"></path><path d="M30.4,12.8 C30.0764833,12.7999309 29.7848528,12.605018 29.6610576,12.3061236 C29.5372625,12.0072293 29.6056737,11.6631954 29.8344,11.4344 L30.6344,10.6344 C30.9483031,10.3312222 31.4472678,10.3355581 31.7558549,10.6441451 C32.0644419,10.9527322 32.0687778,11.4516969 31.7656,11.7656 L30.9656,12.5656 C30.8156058,12.7156395 30.6121559,12.7999547 30.4,12.8 L30.4,12.8 Z" id="Path"></path><path d="M32.8,19.2 L32,19.2 C31.5581722,19.2 31.2,18.8418278 31.2,18.4 C31.2,17.9581722 31.5581722,17.6 32,17.6 L32.8,17.6 C33.2418278,17.6 33.6,17.9581722 33.6,18.4 C33.6,18.8418278 33.2418278,19.2 32.8,19.2 Z" id="Path"></path><path d="M33.6,16.8 L32.8,16.8 C32.3581722,16.8 32,16.4418278 32,16 C32,15.5581722 32.3581722,15.2 32.8,15.2 L33.6,15.2 C34.0418278,15.2 34.4,15.5581722 34.4,16 C34.4,16.4418278 34.0418278,16.8 33.6,16.8 Z" id="Path"></path><path d="M35.2,19.2 C34.7581722,19.2 34.4,18.8418278 34.4,18.4 L34.4,17.6 C34.4,17.1581722 34.7581722,16.8 35.2,16.8 C35.6418278,16.8 36,17.1581722 36,17.6 L36,18.4 C36,18.8418278 35.6418278,19.2 35.2,19.2 Z" id="Path"></path><path d="M12.8,37.6000653 C12.4073738,37.6002845 12.07257,37.315601 12.0097324,36.9280358 C11.9468947,36.5404706 12.1745976,36.1645854 12.5472,36.0408 L14.072,35.5328 L13.684,34.7576 C13.5600493,34.5095507 13.5733893,34.2150046 13.7192547,33.9791752 C13.8651202,33.7433459 14.1227056,33.5998708 14.4,33.6 L16.4904,33.6 L16.0408,32.2528 C15.9737026,32.0514489 15.9893651,31.8316873 16.0843402,31.6418872 C16.1793153,31.4520871 16.3458182,31.3078054 16.5472,31.2408 L18.9472,30.4408 C19.3669364,30.3011824 19.8203824,30.5282636 19.96,30.948 C20.0996176,31.3677364 19.8725364,31.8211824 19.4528,31.9608 L17.812,32.5072 L18.3592,34.1488 C18.4398239,34.3925776 18.3985379,34.6602393 18.248205,34.8683925 C18.0978721,35.0765457 17.8567639,35.1998914 17.6,35.2 L15.6944,35.2 L15.916,35.6424 C16.0208716,35.8502274 16.0300175,36.0934267 15.9410513,36.3085436 C15.8520851,36.5236606 15.6738316,36.6893569 15.4528,36.7624 L13.0528,37.5624 C12.9710928,37.5883999 12.8857371,37.6010952 12.8,37.6000653 L12.8,37.6000653 Z" id="Path"></path><path d="M17.6,24.800012 C17.2953395,24.801663 17.0161807,24.6301355 16.88,24.3576 L16.08,22.7576 C15.882503,22.3621641 16.0429641,21.881497 16.4384,21.684 C16.8338359,21.486503 17.314503,21.6469641 17.512,22.0424 L18.312,23.6424 C18.4356364,23.8898134 18.4227037,24.1835389 18.2778006,24.4191285 C18.1328975,24.6547181 17.8765823,24.7987474 17.6,24.800012 L17.6,24.800012 Z" id="Path"></path></g></g></g></g></g></svg>