<svg xmlns="http://www.w3.org/2000/svg" xmlns:xlink="http://www.w3.org/1999/xlink" id="Layer_1" x="0px" y="0px" viewBox="0 0 88 88" style="enable-background:new 0 0 88 88;" xml:space="preserve">
<style type="text/css">
	.st0{fill-rule:evenodd;clip-rule:evenodd;fill:#E3F8FA;}
	.st1{fill:#9BC9FF;}
	.st2{fill:#1E81CE;}
</style>
<title>Icon_ft_2</title>
<desc>Created with Sketch.</desc>
<g id="Page-1">
	<g id="Home-4" transform="translate(-607.000000, -2531.000000)">
		<g id="Icon_ft_2" transform="translate(607.000000, 2531.000000)">
			<circle id="Oval" class="st0" cx="44" cy="44" r="44"></circle>
			<g transform="translate(20.000000, 20.000000)">
				<path id="Shape" class="st1" d="M38.2,3.6c-1.8-1.8-4.2-2.8-6.8-2.8c-2.5,0-4.9,1.7-6.8,3.6L24,5.1l-0.7-0.7      c-1.9-1.9-4.3-3.6-6.8-3.6c-3.9,0-7.4,2.3-8.9,5.9S7,14.5,9.7,17.2L24,30.7l14.3-13.5c1.8-1.8,2.8-4.2,2.8-6.8      C41.1,7.8,40.1,5.4,38.2,3.6z M28.8,16.3h-3.2v3.2h-3.2v-3.2h-3.2v-3.2h3.2V9.9h3.2v3.2h3.2V16.3z"></path>
				<g id="Group">
					<path id="Path" class="st2" d="M46.1,18.8c-0.9-0.4-1.9-0.4-2.8,0S41.9,20,41.7,21l-1.8,6.8c-1.1-0.7-2.4-0.7-3.5,0       c-0.1,0.1-7.4,4.8-7.4,4.8c-2.6,1.6-4.1,4.4-4.1,7.4v7.6h1.6v-7.6c0-2.5,1.3-4.8,3.4-6.1c0,0,7.3-4.7,7.4-4.8       c0.6-0.4,1.5-0.3,2,0.2c0.6,0.6,0.6,1.6,0,2.2l-4.7,3.3c-0.4,0.3-0.4,0.8-0.2,1.1c0.3,0.4,0.8,0.4,1.1,0.2l4.7-3.3l0.1-0.1       c0.9-0.9,1.2-2.2,0.7-3.3l2.1-7.9c0.2-0.9,1-1.4,1.9-1.3c0.7,0.2,1.3,0.8,1.3,1.6c0,0.1,0,0.3-0.1,0.4l-2.9,10.8       c-0.1,0.4-0.3,0.8-0.6,1.1l-6,6c-1,1.1-1.6,2.5-1.6,4v3.6h1.6v-3.6c0-1.1,0.4-2.1,1.2-2.8l6-6c0.5-0.5,0.9-1.1,1-1.8l2.9-10.8       c0.1-0.4,0.1-0.8,0.1-1.1C47.9,20.3,47.2,19.3,46.1,18.8z"></path>
					<path class="st2" d="M19.1,32.5c-2.2-1.4-7.4-4.8-7.6-4.9c-1-0.6-2.3-0.5-3.3,0.2L6.3,21c-0.3-1.1-1.1-2-2.1-2.3       S2,18.5,1.1,19.2c-0.4,0.3-0.8,0.8-1,1.3C0,21.2,0,21.9,0.1,22.5L3,33.3c0.2,0.7,0.5,1.3,1,1.8l6,6c0.8,0.7,1.2,1.8,1.2,2.8       v3.6h1.6v-3.6c0-1.5-0.6-2.9-1.6-4l-6-6c-0.3-0.3-0.5-0.7-0.6-1.1L1.7,22.1c0-0.1-0.1-0.3-0.1-0.4c0-0.8,0.5-1.4,1.3-1.6       c0.9-0.1,1.7,0.4,1.9,1.3l2.1,7.9c-0.4,1.2-0.1,2.5,0.7,3.3l4.8,3.4c0.4,0.3,0.9,0.2,1.1-0.2c0.3-0.4,0.2-0.9-0.2-1.1l-4.7-3.3       c-0.6-0.6-0.6-1.6,0-2.2c0.5-0.5,1.3-0.6,1.9-0.3c0.3,0.1,4.7,3,7.6,4.8c2.1,1.3,3.4,3.6,3.4,6.1v7.6h1.6v-7.6       C23.2,36.9,21.7,34.1,19.1,32.5L19.1,32.5z"></path>
					<path class="st2" d="M38.8,3c-1.9-1.9-4.6-3-7.3-3c-2.9,0-5.6,2.1-7.4,3.9L24,4l-0.1-0.1C22.1,2.1,19.4,0,16.5,0       c-4.2,0-8,2.5-9.6,6.4s-0.7,8.4,2.3,11.3l14.8,14l14.9-14c1.9-2,3-4.6,3-7.4C41.9,7.6,40.8,5,38.8,3L38.8,3z M37.7,16.6       L24,29.6L10.3,16.7C7.8,14.1,7,10.4,8.4,7.1s4.6-5.4,8.1-5.4c2.3,0,4.7,1.8,6.2,3.4L24,6.3L25.2,5c2.2-2.2,4.4-3.4,6.2-3.4       c3.6,0,6.8,2.1,8.1,5.4S40.2,14.1,37.7,16.6L37.7,16.6z"></path>
					<path class="st2" d="M26.4,20.3v-3.2h3.2v-4.8h-3.2V9.1h-4.8v3.2h-3.2v4.8h3.2v3.2H26.4z M20,15.5v-1.6h3.2v-3.2h1.6v3.2H28       v1.6h-3.2v3.2h-1.6v-3.2H20z"></path>
				</g>
			</g>
		</g>
	</g>
</g>
</svg>