<svg xmlns="http://www.w3.org/2000/svg" xmlns:xlink="http://www.w3.org/1999/xlink" width="88px" height="88px" viewBox="0 0 88 88"><title>Icon_ft_1</title><desc>Created with Sketch.</desc><g id="Page-1" stroke="none" stroke-width="1" fill="none" fill-rule="evenodd"><g id="Home-4" transform="translate(-1225.000000, -2531.000000)"><g id="Icon_ft_1" transform="translate(1225.000000, 2531.000000)"><circle id="Oval" fill="#E3F8FA" cx="44" cy="44" r="44"></circle><g id="1976950" transform="translate(20.000000, 20.000000)" fill-rule="nonzero"><path d="M42.608,3.008 C41.2599772,1.65594606 39.4292447,0.896030279 37.52,0.896030279 C35.6107553,0.896030279 33.7800228,1.65594606 32.432,3.008 L29.6,5.84 L26.768,3.008 C23.9389732,0.299801893 19.4641259,0.349498517 16.6959427,3.11985795 C13.9277596,5.89021738 13.8815795,10.3651023 16.592,13.192 L17.6,14.2 L19.416,16.016 L29.6,26.2 L39.784,16.016 L42.4,13.4 L42.608,13.192 C43.960145,11.8424006 44.7199865,10.0104226 44.7199865,8.1 C44.7199865,6.18957742 43.960145,4.35759935 42.608,3.008 Z" id="Path" fill="#9BC9FF"></path><rect id="Rectangle" fill="#9BC9FF" x="0" y="27.8" width="8" height="19.2"></rect><path d="M45.0624,30.2344 C43.9705372,28.331347 41.5479086,27.6654992 39.6368,28.7432 L30.188,33.56 C29.6666132,32.9600163 28.9775782,32.5298222 28.2096,32.3248 L18.32,29.676 C17.5630477,29.4716708 16.7625908,29.4956066 16.0192,29.7448 L12.624,30.8768 C12.3792021,30.9584136 12.1228442,31.0000144 11.8648,31 L8.8,31 L8.8,27 L0,27 L0,28.6 L7.2,28.6 L7.2,46.2 L0,46.2 L0,47.8 L8.8,47.8 L8.8,44.6 L10.3904,44.6 C10.5864965,44.5998832 10.7818518,44.6240675 10.972,44.672 L16.6072,46.08 C16.9247314,46.1599758 17.2509519,46.2002831 17.5784,46.2 L24.3264,46.2 C25.0284832,46.2002123 25.7182555,46.0156293 26.3264,45.6648 L43.6,35.6928 C44.8347812,34.9770576 45.5963606,33.6592206 45.6000081,32.232 C45.6014211,31.5302012 45.4158585,30.8406925 45.0624,30.2344 L45.0624,30.2344 Z M42.8,34.3072 L25.528,44.28 C25.1628321,44.4896873 24.7490894,44.6000001 24.328,44.6000001 L17.58,44.6000001 C17.383117,44.6000001 17.1869765,44.5758632 16.996,44.528 L11.36,43.12 C11.0416193,43.0402062 10.7146276,42.9999032 10.3864,43 L8.8,43 L8.8,32.6 L11.8664,32.6 C12.2957166,32.599814 12.7222162,32.5306665 13.1296,32.3952 L16.5248,31.2632 C16.9710426,31.1143068 17.4512033,31.0998408 17.9056,31.2216 L27.7072,33.848 C28.8394584,34.1296707 29.6182683,35.1677498 29.572,36.3336 C29.5264307,37.0565395 29.1576248,37.7204897 28.5679361,38.141186 C27.9782475,38.5618823 27.2304213,38.694561 26.532,38.5024 L19.7496,36.8776 C19.3212632,36.7774371 18.8924167,37.0418925 18.7896,37.4696 L18.7896,37.4696 C18.6893894,37.8976886 18.9534171,38.3264211 19.3808,38.4296 L26.1424,40.0496 C27.558683,40.4285378 29.0687867,40.0022999 30.0779224,38.9387696 C31.0870581,37.8752394 31.4335022,36.3448577 30.9808,34.9504 L40.4,30.1496 C40.9522389,29.8303332 41.6090179,29.7445375 42.2247385,29.9112326 C42.8404591,30.0779277 43.364252,30.4833416 43.68,31.0376 C43.8909617,31.4002016 44.0014227,31.812497 44.0000136,32.232 C43.9976883,33.0879629 43.5407141,33.8782238 42.8,34.3072 Z" id="Shape" fill="#1E81CE"></path><path d="M44.1304,12.6 C46.4415319,9.18901947 45.7839913,4.58054636 42.6111385,1.95202513 C39.4382857,-0.676496099 34.787933,-0.46529922 31.8664,2.44 L29.6,4.7088 L27.3336,2.44 C24.2836787,-0.65222122 19.3226176,-0.742990672 16.1616225,2.23559327 C13.0006275,5.21417722 12.7967038,10.1718765 15.7024,13.4 L12,13.4 L12,15 L17.2688,15 L29.6,27.3312 L42.7312,14.2 L48,14.2 L48,12.6 L44.1304,12.6 Z M29.6,25.0688 L19.5312,15 L22.1272,15 L24.0864,10.4296 L28.7664,19.0104 L31.6528,14.2 L34.028,14.2 L36.8,10.04 L39.572,14.2 L40.4688,14.2 L29.6,25.0688 Z M42.0664,12.6 L40.428,12.6 L36.8,7.16 L33.172,12.6 L30.7472,12.6 L28.8336,15.7896 L23.9136,6.7704 L21.0728,13.4 L17.9312,13.4 L17.1576,12.6264 C15.480995,11.0230149 14.8033262,8.63787709 15.386406,6.39246708 C15.9694858,4.14705707 17.72201,2.39298284 19.9669036,1.80791809 C22.2117973,1.22285334 24.5975332,1.89841318 26.2024,3.5736 L29.6,6.9712 L32.9976,3.5736 C35.5091756,1.18376422 39.4669883,1.22827059 41.9241872,3.67398119 C44.3813862,6.1196918 44.4444395,10.0772525 42.0664,12.6 Z" id="Shape" fill="#1E81CE"></path></g></g></g></g></svg>