<svg xmlns="http://www.w3.org/2000/svg" xmlns:xlink="http://www.w3.org/1999/xlink" width="56px" height="56px" viewBox="0 0 56 56"><title>Icon4</title><desc>Created with Sketch.</desc><g id="Page-1" stroke="none" stroke-width="1" fill="none" fill-rule="evenodd"><g id="Home-4" transform="translate(-643.000000, -1505.000000)" fill-rule="nonzero"><g id="Icon4" transform="translate(643.000000, 1505.000000)"><path d="M45.5,56 L10.5,56 C4.7005,56 0,51.2995 0,45.5 L0,10.5 C0,4.7005 4.7005,0 10.5,0 L45.5,0 C51.2995,0 56,4.7005 56,10.5 L56,45.5 C56,51.2995 51.2995,56 45.5,56 Z" id="Path" fill="#FFF9DD"></path><path d="M28.29225,37.33275 L27.7095,37.33275 C26.58425,37.33275 25.66725,36.4175 25.66725,35.2905 L25.66725,32.6655 L23.04225,32.6655 C21.91525,32.66725 21,31.75025 21,30.625 L21,30.04225 C21,28.91525 21.91525,28 23.04225,28 L25.66725,28 L25.66725,25.375 C25.66725,24.24975 26.5825,23.33275 27.7095,23.33275 L28.29225,23.33275 C29.4175,23.33275 30.3345,24.248 30.3345,25.375 L30.3345,28 L32.9595,28 C34.08475,28 35,28.91525 35,30.04225 L35,30.625 C35,31.75025 34.08475,32.66725 32.95775,32.66725 L30.33275,32.66725 L30.33275,35.29225 C30.33275,36.4175 29.4175,37.33275 28.29225,37.33275 Z" id="Path" fill="#FFE777"></path><path d="M38.5,15.16725 L17.5,15.16725 C15.56975,15.16725 14,16.737 14,18.66725 L14,37.3345 C14,39.26475 15.56975,40.8345 17.5,40.8345 L38.5,40.8345 C40.43025,40.8345 42,39.26475 42,37.3345 L42,18.66725 C42,16.737 40.43025,15.16725 38.5,15.16725 Z M38.5,38.5 L17.5,38.5 C16.856,38.5 16.33275,37.97675 16.33275,37.33275 L16.33275,21 L39.6655044,21 L39.6655044,37.33275 C39.66725,37.97675 39.144,38.5 38.5,38.5 Z" id="Shape" fill="#FFD200"></path></g></g></g></svg>