<svg xmlns="http://www.w3.org/2000/svg" xmlns:xlink="http://www.w3.org/1999/xlink" width="56px" height="56px" viewBox="0 0 56 56"><title>Icon3</title><desc>Created with Sketch.</desc><g id="Page-1" stroke="none" stroke-width="1" fill="none" fill-rule="evenodd"><g id="Home-4" transform="translate(-375.000000, -1505.000000)" fill-rule="nonzero"><g id="Icon3" transform="translate(375.000000, 1505.000000)"><path d="M45.5,56 L10.5,56 C4.7005,56 0,51.2995 0,45.5 L0,10.5 C0,4.7005 4.7005,0 10.5,0 L45.5,0 C51.2995,0 56,4.7005 56,10.5 L56,45.5 C56,51.2995 51.2995,56 45.5,56 Z" id="Path" fill="#E3F8FA"></path><path d="M29.7115,42 L26.2885,42 C25.17725,42 24.2725,41.09525 24.2725,39.984 L24.2725,34.468 L19.48975,37.22775 C18.5185,37.77025 17.28825,37.43775 16.7335,36.4875 L15.02025,33.516 C14.749,33.05225 14.67725,32.50625 14.819,31.98125 C14.96075,31.465 15.29325,31.031 15.75875,30.75975 L20.53275,28 L15.7605,25.242 C15.29325,24.969 14.959,24.535 14.81725,24.01875 C14.6755,23.4955 14.74725,22.9495 15.02025,22.4805 L16.73,19.516 C17.28825,18.56225 18.52025,18.22975 19.481,18.76875 L24.27075,21.532 L24.27075,16.016 C24.27075,14.90475 25.1755,14 26.2885,14 L29.7115,14 C30.82275,14 31.7275,14.90475 31.7275,16.016 L31.7275,21.532 L36.51025,18.77225 C37.478,18.228 38.71175,18.5605 39.2665,19.5125 L40.97975,22.484 C41.251,22.94775 41.32275,23.49375 41.181,24.01875 C41.03925,24.535 40.70675,24.969 40.24125,25.24025 L35.46725,28 L40.2395,30.758 C40.70675,31.031 41.041,31.465 41.18275,31.98125 C41.3245,32.5045 41.25275,33.0505 40.97975,33.5195 L39.27,36.484 C38.7135,37.43775 37.47975,37.772 36.519,37.23125 L31.72925,34.468 L31.72925,39.984 C31.72925,41.09525 30.8245,42 29.7115,42 L29.7115,42 Z" id="Path" fill="#26C6DA"></path></g></g></g></svg>