<svg xmlns="http://www.w3.org/2000/svg" xmlns:xlink="http://www.w3.org/1999/xlink" width="14px" height="26px" viewBox="0 0 14 26"><title>Icon_social_2</title><desc>Created with Sketch.</desc><g id="Page-1" stroke="none" stroke-width="1" fill="none" fill-rule="evenodd" opacity="0.300000012"><g id="Home-4" transform="translate(-1317.000000, -6905.000000)" fill="#333333" fill-rule="nonzero"><g id="Group-9" transform="translate(0.000000, 5686.000000)"><g id="Group-27-Copy" transform="translate(1.000000, 800.000000)"><g id="FOOTER-Copy" transform="translate(0.000000, 133.000000)"><g id="social" transform="translate(1256.000000, 288.000000)"><g id="1-copy-13" transform="translate(59.000000, 4.000000)"><path d="M9.9609375,19.125 L9.9609375,8.1875 L13.6230469,8.1875 L14.3066406,3.64648438 L9.9609375,3.64648438 L9.9609375,0.716796875 C9.9609375,0.033203125 10.164388,-0.544596354 10.5712891,-1.01660156 C10.9781901,-1.48860677 11.6373698,-1.72460938 12.5488281,-1.72460938 L12.5488281,-1.72460938 L14.5019531,-1.72460938 L14.5019531,-5.58203125 L14.0136719,-5.63085938 C13.688151,-5.69596354 13.2324219,-5.75292969 12.6464844,-5.80175781 C12.0605469,-5.85058594 11.5071615,-5.875 10.9863281,-5.875 C9.81445312,-5.875 8.78092448,-5.6389974 7.88574219,-5.16699219 C6.9905599,-4.69498698 6.29882812,-4.00325521 5.81054688,-3.09179688 C5.32226562,-2.18033854 5.078125,-1.07356771 5.078125,0.228515625 L5.078125,0.228515625 L5.078125,3.64648438 L1.12304688,3.64648438 L1.12304688,8.1875 L5.078125,8.1875 L5.078125,19.125 L9.9609375,19.125 Z" id="Icon_social_2"></path></g></g></g></g></g></g></g></svg>