<svg xmlns="http://www.w3.org/2000/svg" xmlns:xlink="http://www.w3.org/1999/xlink" width="86px" height="86px" viewBox="0 0 86 86"><title>Group 16</title><g id="Page-1" stroke="none" stroke-width="1" fill="none" fill-rule="evenodd"><g id="Group-35-Copy" transform="translate(-588.000000, -244.000000)"><g id="Group-16" transform="translate(588.000000, 244.000000)"><circle id="Oval" fill="#FFD55A" cx="43" cy="43" r="43"></circle><path d="M31.7910156,43 L31.7910156,39.9882812 L24.5722656,39.9882812 L29.1542969,35.265625 C29.9277344,34.4609375 30.4921875,33.7070312 30.8476562,33.0039062 C31.203125,32.3007812 31.3808594,31.5273438 31.3808594,30.6835938 C31.3808594,29.1679688 30.8554688,27.9765625 29.8046875,27.109375 C28.7539062,26.2421875 27.3925781,25.8085938 25.7207031,25.8085938 C23.9550781,25.8085938 22.5566406,26.2871094 21.5253906,27.2441406 C20.4941406,28.2011719 19.9785156,29.5585938 19.9785156,31.3164062 L19.9785156,31.3164062 L19.9785156,32.1601562 L23.3417969,32.5 L23.3417969,31.2460938 C23.3417969,29.4257812 24.1425781,28.515625 25.7441406,28.515625 C26.4785156,28.515625 27.046875,28.7070312 27.4492188,29.0898438 C27.8515625,29.4726562 28.0527344,29.9960938 28.0527344,30.6601562 C28.0527344,31.6210938 27.5644531,32.59375 26.5878906,33.578125 L26.5878906,33.578125 L19.8496094,40.4570312 L19.8496094,43 L31.7910156,43 Z M40.1933594,43.234375 C42.1621094,43.234375 43.6757812,42.5039062 44.734375,41.0429688 C45.7929688,39.5820312 46.3222656,37.4101562 46.3222656,34.5273438 C46.3222656,31.6367188 45.7949219,29.4648438 44.7402344,28.0117188 C43.6855469,26.5585938 42.1699219,25.8320312 40.1933594,25.8320312 C38.2089844,25.8320312 36.6894531,26.5585938 35.6347656,28.0117188 C34.5800781,29.4648438 34.0527344,31.6367188 34.0527344,34.5273438 C34.0527344,37.4101562 34.5820312,39.5820312 35.640625,41.0429688 C36.6992188,42.5039062 38.2167969,43.234375 40.1933594,43.234375 Z M40.1933594,40.1875 C38.3496094,40.1875 37.4277344,38.3007812 37.4277344,34.5273438 C37.4277344,30.7539062 38.3496094,28.8671875 40.1933594,28.8671875 C41.0605469,28.8671875 41.7363281,29.3300781 42.2207031,30.2558594 C42.7050781,31.1816406 42.9472656,32.6054688 42.9472656,34.5273438 C42.9472656,36.4492188 42.7070312,37.8730469 42.2265625,38.7988281 C41.7460938,39.7246094 41.0683594,40.1875 40.1933594,40.1875 Z M52.2988281,33.7304688 C53.4003906,33.7304688 54.3339844,33.34375 55.0996094,32.5703125 C55.8652344,31.796875 56.2480469,30.8632812 56.2480469,29.7695312 C56.2480469,28.6835938 55.8632812,27.7539062 55.09375,26.9804688 C54.3242188,26.2070312 53.3925781,25.8203125 52.2988281,25.8203125 C51.2128906,25.8203125 50.2851562,26.2070312 49.515625,26.9804688 C48.7460938,27.7539062 48.3613281,28.6835938 48.3613281,29.7695312 C48.3613281,30.8710938 48.7441406,31.8066406 49.5097656,32.5761719 C50.2753906,33.3457031 51.2050781,33.7304688 52.2988281,33.7304688 Z M54.2558594,43.0117188 L63.1269531,26.0546875 L60.3027344,26.0546875 L51.4433594,43.0117188 L54.2558594,43.0117188 Z M52.2988281,31.4804688 C51.8222656,31.4804688 51.4179688,31.3164062 51.0859375,30.9882812 C50.7539062,30.6601562 50.5878906,30.2539062 50.5878906,29.7695312 C50.5878906,29.2929688 50.7558594,28.890625 51.0917969,28.5625 C51.4277344,28.234375 51.8300781,28.0703125 52.2988281,28.0703125 C52.7675781,28.0703125 53.1699219,28.2363281 53.5058594,28.5683594 C53.8417969,28.9003906 54.0097656,29.3007812 54.0097656,29.7695312 C54.0097656,30.2539062 53.8476562,30.6601562 53.5234375,30.9882812 C53.1992188,31.3164062 52.7910156,31.4804688 52.2988281,31.4804688 Z M62.3886719,43.1992188 C63.4746094,43.1992188 64.4003906,42.8125 65.1660156,42.0390625 C65.9316406,41.265625 66.3144531,40.3359375 66.3144531,39.25 C66.3144531,38.15625 65.9316406,37.2246094 65.1660156,36.4550781 C64.4003906,35.6855469 63.4746094,35.3007812 62.3886719,35.3007812 C61.2949219,35.3007812 60.3613281,35.6855469 59.5878906,36.4550781 C58.8144531,37.2246094 58.4277344,38.15625 58.4277344,39.25 C58.4277344,40.34375 58.8105469,41.2753906 59.5761719,42.0449219 C60.3417969,42.8144531 61.2792969,43.1992188 62.3886719,43.1992188 Z M62.3886719,40.9375 C61.9042969,40.9375 61.4960938,40.7734375 61.1640625,40.4453125 C60.8320312,40.1171875 60.6660156,39.71875 60.6660156,39.25 C60.6660156,38.765625 60.8320312,38.359375 61.1640625,38.03125 C61.4960938,37.703125 61.9042969,37.5390625 62.3886719,37.5390625 C62.8496094,37.5390625 63.25,37.7070312 63.5898438,38.0429688 C63.9296875,38.3789062 64.0996094,38.78125 64.0996094,39.25 C64.0996094,39.71875 63.9316406,40.1171875 63.5957031,40.4453125 C63.2597656,40.7734375 62.8574219,40.9375 62.3886719,40.9375 Z" id="20%" fill="#333333" fill-rule="nonzero"></path><path d="M37.890625,65.1484375 C38.6666667,65.1484375 39.3919271,65.015625 40.0664062,64.75 C40.7408854,64.484375 41.3242188,64.1119792 41.8164062,63.6328125 C42.3085938,63.1536458 42.6966146,62.5559896 42.9804688,61.8398438 C43.2643229,61.1236979 43.40625,60.3333333 43.40625,59.46875 C43.40625,58.609375 43.2643229,57.8216146 42.9804688,57.1054688 C42.6966146,56.3893229 42.3085938,55.7916667 41.8164062,55.3125 C41.3242188,54.8333333 40.7408854,54.4622396 40.0664062,54.1992188 C39.3919271,53.9361979 38.6666667,53.8046875 37.890625,53.8046875 C37.109375,53.8046875 36.3815104,53.9361979 35.7070312,54.1992188 C35.0325521,54.4622396 34.4479167,54.8333333 33.953125,55.3125 C33.4583333,55.7916667 33.0703125,56.3893229 32.7890625,57.1054688 C32.5078125,57.8216146 32.3671875,58.609375 32.3671875,59.46875 C32.3671875,60.6145833 32.6106771,61.6223958 33.0976562,62.4921875 C33.5846354,63.3619792 34.2434896,64.0221354 35.0742188,64.4726562 C35.9049479,64.9231771 36.84375,65.1484375 37.890625,65.1484375 Z M37.890625,63.6875 C37.3333333,63.6875 36.8138021,63.5924479 36.3320312,63.4023438 C35.8502604,63.2122396 35.4296875,62.9414062 35.0703125,62.5898438 C34.7109375,62.2382812 34.4283854,61.7942708 34.2226562,61.2578125 C34.0169271,60.7213542 33.9140625,60.125 33.9140625,59.46875 C33.9140625,58.8177083 34.0169271,58.2252604 34.2226562,57.6914062 C34.4283854,57.1575521 34.7109375,56.7161458 35.0703125,56.3671875 C35.4296875,56.0182292 35.8502604,55.7486979 36.3320312,55.5585938 C36.8138021,55.3684896 37.3333333,55.2734375 37.890625,55.2734375 C38.4427083,55.2734375 38.9596354,55.3684896 39.4414062,55.5585938 C39.9231771,55.7486979 40.3424479,56.0182292 40.6992188,56.3671875 C41.0559896,56.7161458 41.3372396,57.1575521 41.5429688,57.6914062 C41.7486979,58.2252604 41.8515625,58.8177083 41.8515625,59.46875 C41.8515625,60.125 41.7486979,60.7213542 41.5429688,61.2578125 C41.3372396,61.7942708 41.0559896,62.2382812 40.6992188,62.5898438 C40.3424479,62.9414062 39.9231771,63.2122396 39.4414062,63.4023438 C38.9596354,63.5924479 38.4427083,63.6875 37.890625,63.6875 Z M47.578125,65 L47.578125,58.4453125 L51.109375,58.4453125 L51.109375,65 L52.6015625,65 L52.6015625,58.4453125 L54.3671875,58.4453125 L54.3671875,57.265625 L52.6015625,57.265625 L52.6015625,55.796875 C52.6015625,55.578125 52.6210938,55.3841146 52.6601562,55.2148438 C52.6992188,55.0455729 52.7447917,54.9075521 52.796875,54.8007812 C52.8489583,54.6940104 52.9283854,54.6028646 53.0351562,54.5273438 C53.1419271,54.4518229 53.2330729,54.3958333 53.3085938,54.359375 C53.3841146,54.3229167 53.4973958,54.2955729 53.6484375,54.2773438 C53.7994792,54.2591146 53.9140625,54.2486979 53.9921875,54.2460938 C54.0703125,54.2434896 54.1953125,54.2421875 54.3671875,54.2421875 L54.3671875,54.2421875 L54.3671875,53 C53.9505208,53 53.59375,53.0182292 53.296875,53.0546875 C53,53.0911458 52.7044271,53.1666667 52.4101562,53.28125 C52.1158854,53.3958333 51.8802083,53.5520833 51.703125,53.75 C51.5260417,53.9479167 51.3828125,54.2161458 51.2734375,54.5546875 C51.1640625,54.8932292 51.109375,55.2994792 51.109375,55.7734375 L51.109375,55.7734375 L51.109375,57.265625 L47.578125,57.265625 L47.578125,55.796875 C47.578125,55.578125 47.5976562,55.3841146 47.6367188,55.2148438 C47.6757812,55.0455729 47.7213542,54.9075521 47.7734375,54.8007812 C47.8255208,54.6940104 47.9049479,54.6028646 48.0117188,54.5273438 C48.1184896,54.4518229 48.2109375,54.3958333 48.2890625,54.359375 C48.3671875,54.3229167 48.4817708,54.2955729 48.6328125,54.2773438 C48.7838542,54.2591146 48.8984375,54.2486979 48.9765625,54.2460938 C49.0546875,54.2434896 49.1796875,54.2421875 49.3515625,54.2421875 L49.3515625,54.2421875 L49.3515625,53 C48.9348958,53 48.5768229,53.0182292 48.2773438,53.0546875 C47.9778646,53.0911458 47.6822917,53.1666667 47.390625,53.28125 C47.0989583,53.3958333 46.8632812,53.5520833 46.6835938,53.75 C46.5039062,53.9479167 46.359375,54.2161458 46.25,54.5546875 C46.140625,54.8932292 46.0859375,55.2994792 46.0859375,55.7734375 L46.0859375,55.7734375 L46.0859375,57.265625 L44.59375,57.265625 L44.59375,58.4453125 L46.0859375,58.4453125 L46.0859375,65 L47.578125,65 Z" id="Of" fill="#333333" fill-rule="nonzero"></path></g></g></g></svg>