<svg xmlns="http://www.w3.org/2000/svg" xmlns:xlink="http://www.w3.org/1999/xlink" width="120px" height="120px" viewBox="0 0 120 120"><title>Group 3</title><defs><linearGradient x1="108.027741%" y1="-14.6632419%" x2="-11.4415028%" y2="135.155555%" id="linearGradient-1"><stop stop-color="#FE5B34" offset="0%"></stop><stop stop-color="#FE378C" offset="100%"></stop></linearGradient><circle id="path-2" cx="40" cy="40" r="40"></circle><filter x="-40.6%" y="-34.4%" width="181.2%" height="181.2%" filterUnits="objectBoundingBox" id="filter-3"><feGaussianBlur stdDeviation="10"></feGaussianBlur></filter></defs><g id="Page-1" stroke="none" stroke-width="1" fill="none" fill-rule="evenodd"><g id="Group-3" transform="translate(20.000000, 15.000000)"><g id="Oval"><use fill="black" fill-opacity="1" filter="url(#filter-3)" xlink:href="#path-2"></use><use fill="url(#linearGradient-1)" fill-rule="evenodd" xlink:href="#path-2"></use></g><path d="M18.7539062,48 L18.7539062,35.8945312 L26.2539062,48 L30.3203125,48 L30.3203125,31.0664062 L26.8164062,31.0664062 L26.8164062,43.1015625 L19.2695312,31.0664062 L15.25,31.0664062 L15.25,48 L18.7539062,48 Z M39.7304688,48.234375 C41.0976562,48.234375 42.2851562,47.8984375 43.2929688,47.2265625 C44.3007812,46.5546875 45.0039062,45.6132812 45.4023438,44.4023438 L45.4023438,44.4023438 L42.3085938,43.9453125 C42.0820312,44.4765625 41.7441406,44.8808594 41.2949219,45.1582031 C40.8457031,45.4355469 40.3164062,45.5742188 39.7070312,45.5742188 C38.8632812,45.5742188 38.15625,45.3203125 37.5859375,44.8125 C37.015625,44.3046875 36.6953125,43.5703125 36.625,42.609375 L36.625,42.609375 L45.5546875,42.609375 L45.5898438,41.8007812 C45.5820312,39.7773438 45.0351562,38.2539062 43.9492188,37.2304688 C42.8632812,36.2070312 41.421875,35.6953125 39.625,35.6953125 C37.734375,35.6953125 36.2070312,36.2558594 35.0429688,37.3769531 C33.8789062,38.4980469 33.296875,40.03125 33.296875,41.9765625 C33.296875,43.9375 33.8769531,45.4707031 35.0371094,46.5761719 C36.1972656,47.6816406 37.7617188,48.234375 39.7304688,48.234375 Z M42.25,40.40625 L36.71875,40.40625 C37.03125,38.859375 38.0078125,38.0859375 39.6484375,38.0859375 C40.359375,38.0859375 40.9492188,38.2851562 41.4179688,38.6835938 C41.8867188,39.0820312 42.1640625,39.65625 42.25,40.40625 L42.25,40.40625 Z M53.8632812,48.0117188 L56.6757812,40.0546875 L59.4648438,48.0117188 L62.59375,48.0117188 L66.8125,35.953125 L63.3203125,35.953125 L60.7890625,43.7695312 L57.953125,35.953125 L55.3632812,35.953125 L52.515625,43.7929688 L50.03125,35.953125 L46.5507812,35.953125 L50.6875,48.0117188 L53.8632812,48.0117188 Z" id="New" fill="#FFFFFF" fill-rule="nonzero"></path></g></g></svg>